<svg width="60" height="60" viewBox="0 0 60 60" fill="none" xmlns="http://www.w3.org/2000/svg">
<path d="M5.21739 48.75C5.21739 52.1875 7.5587 55 10.4348 55C11.0518 54.9873 11.66 54.8563 12.2234 54.6148C12.7868 54.3733 13.294 54.0261 13.7152 53.5938C14.1673 53.1355 14.7799 52.8531 15.4357 52.8007C16.0915 52.7482 16.7444 52.9293 17.2696 53.3094C17.5546 53.5255 17.7893 53.7963 17.9587 54.1045C18.1281 54.4126 18.2284 54.7512 18.2533 55.0987C18.2782 55.4462 18.227 55.7948 18.1031 56.1222C17.9792 56.4496 17.7852 56.7486 17.5337 57C16.6264 57.9376 15.5287 58.6874 14.3078 59.2033C13.087 59.7192 11.769 59.9903 10.4348 60C4.67935 60 0 54.9531 0 48.75C0 42.5469 4.67935 37.5 10.4348 37.5C11.7379 37.5096 13.0258 37.7685 14.2231 38.2617C15.4203 38.7549 16.5026 39.4723 17.4065 40.3719C17.8894 40.8172 18.1818 41.4191 18.2264 42.06C18.271 42.7008 18.0647 43.3346 17.6478 43.8375C17.412 44.106 17.1198 44.3239 16.7903 44.4771C16.4608 44.6302 16.1013 44.7152 15.7352 44.7264C15.3692 44.7376 15.0048 44.6748 14.6658 44.5421C14.3267 44.4094 14.0206 44.2098 13.7674 43.9563C13.3444 43.5091 12.8307 43.1493 12.2577 42.8989C11.6847 42.6485 11.0644 42.5128 10.4348 42.5C7.5587 42.5 5.21739 45.3125 5.21739 48.75ZM31.1739 46.0344C29.8696 45.6719 28.5196 45.3 27.7663 44.8344C27.3554 44.5812 27.3652 44.5219 27.4011 44.2406C27.406 44.0134 27.4678 43.7906 27.5813 43.591C27.6948 43.3914 27.8566 43.2209 28.0533 43.0938C29.5533 42.1187 33.0587 42.5531 34.5196 42.9187C35.1889 43.0874 35.9008 42.9943 36.4986 42.66C37.0964 42.3256 37.5311 41.7774 37.7071 41.1359C37.8831 40.4944 37.7859 39.8122 37.4371 39.2394C37.0882 38.6665 36.5161 38.2499 35.8467 38.0812C35.1554 37.9094 28.9989 36.45 25.1413 38.9437C24.3244 39.4684 23.638 40.1589 23.1308 40.9663C22.6236 41.7737 22.308 42.6782 22.2065 43.6156C21.5543 48.5781 26.6543 49.9937 29.7065 50.8375C33.6424 51.9281 33.988 52.375 33.8739 53.2094C33.7728 53.9625 33.463 54.2531 33.1761 54.4375C31.6761 55.3937 28.2293 54.925 26.8011 54.55C26.1379 54.3814 25.4322 54.4699 24.8367 54.7965C24.2412 55.123 23.8038 55.6612 23.6194 56.2945C23.435 56.9278 23.5184 57.6052 23.8515 58.18C24.1845 58.7549 24.7405 59.1808 25.3989 59.3656C27.0151 59.7717 28.6781 59.9817 30.3489 59.9906C32.25 59.9906 34.3598 59.6781 36.0522 58.5969C36.8875 58.0649 37.5895 57.3623 38.1076 56.5393C38.6258 55.7164 38.9472 54.7937 39.0489 53.8375C39.7826 48.4375 34.3957 46.9281 31.1739 46.0344ZM52.0435 46.0344C50.7391 45.6719 49.3891 45.3 48.6359 44.8344C48.2283 44.5812 48.2348 44.5219 48.2707 44.2406C48.2755 44.0134 48.3373 43.7906 48.4508 43.591C48.5643 43.3914 48.7262 43.2209 48.9228 43.0938C50.4228 42.1187 53.925 42.5531 55.3859 42.9187C56.0553 43.0874 56.7671 42.9943 57.3649 42.66C57.9627 42.3256 58.3974 41.7774 58.5734 41.1359C58.7494 40.4944 58.6522 39.8122 58.3034 39.2394C57.9545 38.6665 57.3824 38.2499 56.713 38.0812C56.025 37.9094 49.8652 36.45 46.0076 38.9437C45.1942 39.4705 44.5113 40.1619 44.007 40.9691C43.5027 41.7763 43.1894 42.6797 43.0891 43.6156C42.437 48.5781 47.5402 49.9937 50.5891 50.8375C54.5217 51.9281 54.8674 52.375 54.7565 53.2094C54.6554 53.9625 54.3457 54.2531 54.0554 54.4375C52.5554 55.3937 49.112 54.925 47.6837 54.55C47.016 54.3718 46.3019 54.4551 45.6983 54.7815C45.0947 55.1079 44.6512 55.6508 44.4652 56.2906C44.2793 56.9305 44.3662 57.6149 44.7068 58.1933C45.0474 58.7717 45.6139 59.1968 46.2815 59.375C47.8988 59.781 49.5629 59.991 51.2348 60C53.1326 60 55.2457 59.6875 56.938 58.6062C57.7729 58.0741 58.4744 57.3714 58.992 56.5484C59.5096 55.7255 59.8304 54.8028 59.9315 53.8469C60.6522 48.4375 55.2652 46.9281 52.0402 46.0344H52.0435ZM2.6087 28.75V5C2.6087 3.67392 3.15838 2.40215 4.13683 1.46447C5.11528 0.526785 6.44235 7.72996e-07 7.82609 7.72996e-07H39.1304C39.4731 -0.000257465 39.8125 0.0641895 40.1292 0.18966C40.4459 0.31513 40.7336 0.499165 40.9761 0.731251L59.237 18.2313C59.4791 18.4636 59.6712 18.7394 59.8021 19.0429C59.933 19.3464 60.0003 19.6716 60 20V28.75C60 29.0815 59.8626 29.3995 59.618 29.6339C59.3734 29.8683 59.0416 30 58.6957 30H3.91304C3.56711 30 3.23534 29.8683 2.99073 29.6339C2.74612 29.3995 2.6087 29.0815 2.6087 28.75ZM39.1304 20H53.4783L39.1304 6.25V20Z" fill="#FE7F2D"/>
</svg>
