<svg width="61" height="60" viewBox="0 0 61 60" fill="none" xmlns="http://www.w3.org/2000/svg">
<path d="M54.0228 19.9976C56.6737 18.5985 58.6319 16.648 59.6199 14.4223C60.608 12.1966 60.5757 9.80863 59.5279 7.59654C58.48 5.38446 56.4696 3.46045 53.7814 2.09705C51.0932 0.733659 47.8635 0 44.5498 0H16.131C12.8173 0 9.58767 0.733659 6.89948 2.09705C4.21129 3.46045 2.20087 5.38446 1.15299 7.59654C0.105115 9.80863 0.0729104 12.1966 1.06094 14.4223C2.04897 16.648 4.00714 18.5985 6.65808 19.9976C4.65093 21.056 3.03104 22.4358 1.9326 24.0225C0.834166 25.6093 0.288786 27.3573 0.341641 29.1219C0.394495 30.8865 1.04406 32.6169 2.23654 34.1696C3.42901 35.7224 5.13008 37.0529 7.19883 38.0509C4.84574 39.3098 2.98822 40.9705 1.80215 42.8757C0.616082 44.781 0.140724 46.8677 0.421085 48.9384C0.701447 51.009 1.72825 52.995 3.40426 54.7084C5.08028 56.4217 7.35004 57.8057 9.99864 58.7293C12.6472 59.6528 15.587 60.0854 18.5396 59.986C21.4921 59.8867 24.3598 59.2586 26.871 58.1614C29.3823 57.0642 31.454 55.5341 32.89 53.716C34.3259 51.8979 35.0787 49.852 35.0769 47.772V37.7732C38.4267 39.5411 42.6374 40.3002 46.7826 39.8835C50.9279 39.4668 54.668 37.9084 57.1804 35.5512C59.6928 33.194 60.7716 30.2311 60.1794 27.3142C59.5872 24.3973 57.3726 21.7655 54.0228 19.9976ZM28.7616 35.5512H16.131C13.6186 35.5512 11.2092 34.8489 9.43264 33.5988C7.65612 32.3488 6.65808 30.6533 6.65808 28.8854C6.65808 27.1175 7.65612 25.422 9.43264 24.1719C11.2092 22.9218 13.6186 22.2195 16.131 22.2195H28.7616V35.5512ZM44.5498 17.7756H35.0769V4.4439H44.5498C47.0622 4.4439 49.4717 5.1462 51.2482 6.39629C53.0247 7.64638 54.0228 9.34186 54.0228 11.1098C54.0228 12.8777 53.0247 14.5731 51.2482 15.8232C49.4717 17.0733 47.0622 17.7756 44.5498 17.7756Z" fill="#FE7F2D"/>
</svg>
