<svg width="60" height="60" viewBox="0 0 60 60" fill="none" xmlns="http://www.w3.org/2000/svg">
<path d="M7.11864 32.5H49.8305C50.1002 32.5 50.3589 32.3683 50.5496 32.1339C50.7403 31.8995 50.8475 31.5815 50.8475 31.25V20C50.8477 19.6716 50.7952 19.3464 50.6932 19.0429C50.5911 18.7394 50.4414 18.4636 50.2525 18.2313L36.0153 0.731251C35.8262 0.499165 35.6019 0.31513 35.3549 0.18966C35.108 0.0641895 34.8434 -0.000257465 34.5763 7.72996e-07H10.1695C9.09064 7.72996e-07 8.05598 0.526785 7.29313 1.46447C6.53027 2.40215 6.1017 3.67392 6.1017 5V31.25C6.1017 31.5815 6.20884 31.8995 6.39955 32.1339C6.59027 32.3683 6.84893 32.5 7.11864 32.5ZM34.5763 6.25L45.7627 20H34.5763V6.25ZM13.2203 42.5V57.5C13.2203 58.163 13.0061 58.7989 12.6246 59.2678C12.2432 59.7366 11.7259 60 11.1864 60C10.647 60 10.1297 59.7366 9.74826 59.2678C9.36683 58.7989 9.15254 58.163 9.15254 57.5V52.5H4.0678V57.5C4.0678 58.163 3.85351 58.7989 3.47208 59.2678C3.09065 59.7366 2.57332 60 2.0339 60C1.49448 60 0.977145 59.7366 0.595715 59.2678C0.214285 58.7989 0 58.163 0 57.5V42.5C0 41.837 0.214285 41.2011 0.595715 40.7322C0.977145 40.2634 1.49448 40 2.0339 40C2.57332 40 3.09065 40.2634 3.47208 40.7322C3.85351 41.2011 4.0678 41.837 4.0678 42.5V47.5H9.15254V42.5C9.15254 41.837 9.36683 41.2011 9.74826 40.7322C10.1297 40.2634 10.647 40 11.1864 40C11.7259 40 12.2432 40.2634 12.6246 40.7322C13.0061 41.2011 13.2203 41.837 13.2203 42.5ZM27.4576 42.5C27.4576 43.163 27.2433 43.7989 26.8619 44.2678C26.4805 44.7366 25.9632 45 25.4237 45H23.3898V57.5C23.3898 58.163 23.1755 58.7989 22.7941 59.2678C22.4127 59.7366 21.8954 60 21.3559 60C20.8165 60 20.2992 59.7366 19.9177 59.2678C19.5363 58.7989 19.322 58.163 19.322 57.5V45H17.2881C16.7487 45 16.2314 44.7366 15.85 44.2678C15.4685 43.7989 15.2542 43.163 15.2542 42.5C15.2542 41.837 15.4685 41.2011 15.85 40.7322C16.2314 40.2634 16.7487 40 17.2881 40H25.4237C25.9632 40 26.4805 40.2634 26.8619 40.7322C27.2433 41.2011 27.4576 41.837 27.4576 42.5ZM45.7627 42.5V57.5C45.7627 58.163 45.5484 58.7989 45.167 59.2678C44.7856 59.7366 44.2682 60 43.7288 60C43.1894 60 42.6721 59.7366 42.2906 59.2678C41.9092 58.7989 41.6949 58.163 41.6949 57.5V50L39.2542 54C39.0648 54.3105 38.8191 54.5625 38.5367 54.7361C38.2543 54.9096 37.9429 55 37.6271 55C37.3114 55 37 54.9096 36.7175 54.7361C36.4351 54.5625 36.1895 54.3105 36 54L33.5593 50V57.5C33.5593 58.163 33.345 58.7989 32.9636 59.2678C32.5822 59.7366 32.0648 60 31.5254 60C30.986 60 30.4687 59.7366 30.0872 59.2678C29.7058 58.7989 29.4915 58.163 29.4915 57.5V42.5C29.4915 41.9753 29.6258 41.4639 29.8754 41.0382C30.125 40.6126 30.4773 40.2942 30.8823 40.1283C31.2872 39.9624 31.7244 39.9573 32.1319 40.1137C32.5393 40.2702 32.8964 40.5802 33.1525 41L37.6271 48.3344L42.1017 41C42.3578 40.5802 42.7149 40.2702 43.1224 40.1137C43.5298 39.9573 43.967 39.9624 44.372 40.1283C44.777 40.2942 45.1292 40.6126 45.3788 41.0382C45.6284 41.4639 45.7627 41.9753 45.7627 42.5ZM60 57.5C60 58.163 59.7857 58.7989 59.4043 59.2678C59.0229 59.7366 58.5055 60 57.9661 60H50.8475C50.308 60 49.7907 59.7366 49.4093 59.2678C49.0278 58.7989 48.8136 58.163 48.8136 57.5V42.5C48.8136 41.837 49.0278 41.2011 49.4093 40.7322C49.7907 40.2634 50.308 40 50.8475 40C51.3869 40 51.9042 40.2634 52.2856 40.7322C52.6671 41.2011 52.8814 41.837 52.8814 42.5V55H57.9661C58.5055 55 59.0229 55.2634 59.4043 55.7322C59.7857 56.2011 60 56.837 60 57.5Z" fill="#FE7F2D"/>
</svg>
