<svg width="60" height="60" viewBox="0 0 60 60" fill="none" xmlns="http://www.w3.org/2000/svg">
<path d="M58.9255 16.5306L41.7827 0.975001C41.4412 0.665553 41.036 0.420173 40.5901 0.252879C40.1441 0.0855858 39.6662 -0.000343286 39.1837 1.03066e-06H9.79592C8.17214 1.03066e-06 6.61488 0.585317 5.46669 1.62719C4.31851 2.66905 3.67347 4.08213 3.67347 5.55556V24.4444C3.67347 25.3285 4.06049 26.1763 4.7494 26.8015C5.43831 27.4266 6.37267 27.7778 7.34694 27.7778C8.3212 27.7778 9.25557 27.4266 9.94447 26.8015C10.6334 26.1763 11.0204 25.3285 11.0204 24.4444V6.66667H34.2857V20C34.2857 20.8841 34.6727 21.7319 35.3617 22.357C36.0506 22.9821 36.9849 23.3333 37.9592 23.3333H52.6531V53.3333H47.7551C46.7808 53.3333 45.8465 53.6845 45.1576 54.3096C44.4687 54.9348 44.0816 55.7826 44.0816 56.6667C44.0816 57.5507 44.4687 58.3986 45.1576 59.0237C45.8465 59.6488 46.7808 60 47.7551 60H53.8776C55.5013 60 57.0586 59.4147 58.2068 58.3728C59.355 57.3309 60 55.9179 60 54.4444V18.8889C60.0004 18.451 59.9057 18.0174 59.7213 17.6127C59.537 17.2081 59.2665 16.8403 58.9255 16.5306ZM41.6327 10.2778L48.6735 16.6667H41.6327V10.2778ZM40.3408 49.125C40.2245 50.1338 39.8637 51.1067 39.2841 51.9741C38.7046 52.8414 37.9207 53.5816 36.9888 54.1417C35.152 55.2528 32.9265 55.5722 30.949 55.5722C29.2707 55.5622 27.6008 55.3558 25.9806 54.9583C25.0421 54.7204 24.2461 54.1539 23.7679 53.3834C23.2897 52.6129 23.1684 51.7016 23.4306 50.85C23.6929 49.9984 24.3172 49.2761 25.1663 48.8422C26.0153 48.4083 27.0196 48.2982 27.9582 48.5361C30.0429 49.0528 32.55 48.9833 32.9755 48.5528C33.0076 48.4903 33.0293 48.4238 33.0398 48.3556C32.4459 48.0139 30.949 47.6222 30.0153 47.3778C28.3653 46.9444 26.648 46.4944 25.1939 45.6361C22.8612 44.2694 21.7622 42.1778 22.099 39.7472C22.2133 38.7581 22.5657 37.8038 23.1311 36.9518C23.6966 36.0999 24.4614 35.371 25.3714 34.8167C27.2265 33.6806 29.7092 33.1944 32.749 33.3778C33.9898 33.4488 35.2212 33.6199 36.4286 33.8889C37.3603 34.1222 38.1531 34.6792 38.6352 35.4393C39.1174 36.1994 39.25 37.1012 39.0043 37.9494C38.7587 38.7976 38.1545 39.5238 37.3228 39.9706C36.4911 40.4173 35.4989 40.5487 34.5612 40.3361C32.6143 39.8833 30.3918 39.9167 29.6418 40.2444C30.4347 40.5222 31.2429 40.7624 32.0633 40.9639C33.7408 41.4028 35.6388 41.9 37.2061 42.8583C39.5908 44.3194 40.7143 46.5417 40.3408 49.1167V49.125ZM18.3673 36.6667V47.2222C18.3673 49.4324 17.3998 51.552 15.6775 53.1148C13.9552 54.6776 11.6193 55.5556 9.18367 55.5556C6.74801 55.5556 4.41211 54.6776 2.68984 53.1148C0.967563 51.552 3.62942e-08 49.4324 0 47.2222C0 46.3382 0.387025 45.4903 1.07593 44.8652C1.76484 44.2401 2.6992 43.8889 3.67347 43.8889C4.64773 43.8889 5.5821 44.2401 6.27101 44.8652C6.95991 45.4903 7.34694 46.3382 7.34694 47.2222C7.34694 47.6643 7.54045 48.0882 7.88491 48.4007C8.22936 48.7133 8.69654 48.8889 9.18367 48.8889C9.67081 48.8889 10.138 48.7133 10.4824 48.4007C10.8269 48.0882 11.0204 47.6643 11.0204 47.2222V36.6667C11.0204 35.7826 11.4074 34.9348 12.0963 34.3096C12.7853 33.6845 13.7196 33.3333 14.6939 33.3333C15.6681 33.3333 16.6025 33.6845 17.2914 34.3096C17.9803 34.9348 18.3673 35.7826 18.3673 36.6667Z" fill="#FE7F2D"/>
</svg>
