<svg width="60" height="60" viewBox="0 0 60 60" fill="none" xmlns="http://www.w3.org/2000/svg">
<path d="M1.27649 29.9997H54.8889C55.2274 29.9997 55.5521 29.868 55.7915 29.6336C56.0309 29.3992 56.1654 29.0813 56.1654 28.7497V19.9998C56.1656 19.6714 56.0998 19.3462 55.9717 19.0427C55.8436 18.7392 55.6556 18.4634 55.4186 18.2311L37.5478 0.7312C37.3105 0.499116 37.0289 0.315082 36.719 0.189613C36.4091 0.0641437 36.0769 -0.000302838 35.7416 -4.46025e-05H5.10594C3.75176 -4.46025e-05 2.45305 0.526735 1.4955 1.46441C0.537945 2.40209 6.39993e-08 3.67385 6.39993e-08 4.99992V28.7497C6.39993e-08 29.0813 0.134487 29.3992 0.373874 29.6336C0.613262 29.868 0.93794 29.9997 1.27649 29.9997ZM35.7416 6.24991L49.7829 19.9998H35.7416V6.24991ZM59.9948 57.6652C59.9377 58.3077 59.6346 58.9054 59.1463 59.3384C58.6581 59.7713 58.0207 60.0075 57.3621 59.9995H48.5064C47.8294 59.9995 47.18 59.7361 46.7012 59.2673C46.2224 58.7985 45.9535 58.1626 45.9535 57.4995V40.084C45.9454 39.4391 46.1865 38.8149 46.6286 38.3368C47.0708 37.8587 47.6811 37.5619 48.3373 37.5059C48.6865 37.4832 49.0368 37.5311 49.3663 37.6465C49.6958 37.7619 49.9976 37.9425 50.2529 38.1769C50.5082 38.4114 50.7115 38.6947 50.8502 39.0094C50.989 39.324 51.0602 39.6632 51.0594 40.0059V55.0058H57.4418C57.7912 55.0051 58.1371 55.0747 58.4579 55.2101C58.7788 55.3456 59.0678 55.5442 59.3071 55.7934C59.5465 56.0427 59.731 56.3375 59.8493 56.6594C59.9675 56.9814 60.0171 57.3237 59.9948 57.6652ZM16.5369 53.8464C16.4374 54.8026 16.1228 55.7253 15.6157 56.5482C15.1086 57.3712 14.4216 58.0738 13.6041 58.6058C11.9479 59.687 9.89276 59.9995 8.02271 59.9995C6.39176 59.9912 4.76842 59.7812 3.19121 59.3745C2.54685 59.1897 2.00277 58.7638 1.67682 58.1889C1.35087 57.6141 1.26929 56.9367 1.44975 56.3034C1.63021 55.6701 2.05819 55.1319 2.64098 54.8054C3.22377 54.4789 3.91445 54.3903 4.56343 54.5589C5.96119 54.9339 9.3343 55.4027 10.8023 54.4464C11.0863 54.2621 11.3862 53.9714 11.4852 53.2183C11.5969 52.3839 11.2586 51.9371 7.40681 50.8465C4.42302 50.0027 -0.571227 48.5871 0.0670152 43.6246C0.166352 42.6873 0.475159 41.7828 0.971522 40.9754C1.46789 40.168 2.13964 39.4774 2.93911 38.9528C6.71751 36.4528 12.7425 37.9184 13.4159 38.0903C13.7402 38.174 14.0446 38.3195 14.3115 38.5184C14.5785 38.7173 14.8028 38.9657 14.9717 39.2495C15.1406 39.5333 15.2508 39.8469 15.296 40.1724C15.3411 40.4979 15.3203 40.8289 15.2349 41.1465C15.1494 41.4642 15.0008 41.7622 14.7977 42.0236C14.5946 42.285 14.3409 42.5047 14.0511 42.6701C13.7613 42.8355 13.441 42.9434 13.1086 42.9876C12.7762 43.0318 12.4382 43.0115 12.1138 42.9278C10.681 42.5621 7.25682 42.1278 5.78886 43.1028C5.59644 43.2299 5.43802 43.4004 5.32695 43.6C5.21588 43.7996 5.15541 44.0224 5.15062 44.2496C5.11232 44.5309 5.10594 44.5871 5.50803 44.8434C6.2452 45.309 7.56317 45.6809 8.84285 46.0434C11.9671 46.9277 17.2517 48.4371 16.5369 53.8464ZM39.1945 54.8558C40.2833 52.9978 40.8534 50.8918 40.8475 48.7496C40.8475 42.5465 36.2681 37.4997 30.6356 37.4997C25.0032 37.4997 20.4238 42.5465 20.4238 48.7496C20.4238 54.9527 25.0032 59.9995 30.6356 59.9995C32.439 59.9929 34.2016 59.474 35.7097 58.5058L36.4883 59.2683C36.7365 59.5112 37.0332 59.7014 37.3598 59.827C37.6865 59.9526 38.036 60.0109 38.3867 59.9983C38.7374 59.9857 39.0816 59.9024 39.3979 59.7537C39.7143 59.605 39.9959 59.394 40.2252 59.1339C40.6441 58.6383 40.8567 58.0062 40.8206 57.3638C40.7845 56.7214 40.5024 56.116 40.0306 55.6683L39.1945 54.8558ZM30.6356 54.9996C27.821 54.9996 25.5297 52.1871 25.5297 48.7496C25.5297 45.3121 27.821 42.4996 30.6356 42.4996C33.4503 42.4996 35.7416 45.3121 35.7416 48.7496C35.7421 49.5464 35.615 50.3382 35.365 51.0965L35.0682 50.8058C34.597 50.3304 33.9565 50.0516 33.2803 50.0277C32.6042 50.0039 31.9448 50.2367 31.4398 50.6777C31.1905 50.907 30.9907 51.183 30.8524 51.4894C30.7141 51.7957 30.64 52.1262 30.6347 52.4611C30.6293 52.796 30.6927 53.1286 30.8212 53.439C30.9496 53.7495 31.1405 54.0315 31.3824 54.2683L31.9185 54.7902C31.5048 54.9256 31.0719 54.9962 30.6356 54.9996Z" fill="#FE7F2D"/>
</svg>
