<svg width="80" height="80" viewBox="0 0 80 80" fill="none" xmlns="http://www.w3.org/2000/svg">
<path d="M19.5 57C22.3333 54.8333 25.5 53.125 29 51.875C32.5 50.625 36.1666 50 40 50C43.8333 50 47.5 50.625 51 51.875C54.5 53.125 57.6666 54.8333 60.5 57C62.4444 54.7222 63.9583 52.1389 65.0416 49.25C66.125 46.3611 66.6666 43.2778 66.6666 40C66.6666 32.6111 64.0694 26.3194 58.875 21.125C53.6805 15.9306 47.3888 13.3333 40 13.3333C32.6111 13.3333 26.3194 15.9306 21.125 21.125C15.9305 26.3194 13.3333 32.6111 13.3333 40C13.3333 43.2778 13.875 46.3611 14.9583 49.25C16.0416 52.1389 17.5555 54.7222 19.5 57ZM40 43.3333C36.7222 43.3333 33.9583 42.2083 31.7083 39.9583C29.4583 37.7083 28.3333 34.9444 28.3333 31.6667C28.3333 28.3889 29.4583 25.625 31.7083 23.375C33.9583 21.125 36.7222 20 40 20C43.2777 20 46.0416 21.125 48.2916 23.375C50.5416 25.625 51.6666 28.3889 51.6666 31.6667C51.6666 34.9444 50.5416 37.7083 48.2916 39.9583C46.0416 42.2083 43.2777 43.3333 40 43.3333ZM40 73.3333C35.3888 73.3333 31.0555 72.4583 27 70.7083C22.9444 68.9583 19.4166 66.5833 16.4166 63.5833C13.4166 60.5833 11.0416 57.0555 9.29163 53C7.54163 48.9444 6.66663 44.6111 6.66663 40C6.66663 35.3889 7.54163 31.0556 9.29163 27C11.0416 22.9444 13.4166 19.4167 16.4166 16.4167C19.4166 13.4167 22.9444 11.0417 27 9.29166C31.0555 7.54166 35.3888 6.66666 40 6.66666C44.6111 6.66666 48.9444 7.54166 53 9.29166C57.0555 11.0417 60.5833 13.4167 63.5833 16.4167C66.5833 19.4167 68.9583 22.9444 70.7083 27C72.4583 31.0556 73.3333 35.3889 73.3333 40C73.3333 44.6111 72.4583 48.9444 70.7083 53C68.9583 57.0555 66.5833 60.5833 63.5833 63.5833C60.5833 66.5833 57.0555 68.9583 53 70.7083C48.9444 72.4583 44.6111 73.3333 40 73.3333ZM40 66.6667C42.9444 66.6667 45.7222 66.2361 48.3333 65.375C50.9444 64.5139 53.3333 63.2778 55.5 61.6667C53.3333 60.0555 50.9444 58.8194 48.3333 57.9583C45.7222 57.0972 42.9444 56.6667 40 56.6667C37.0555 56.6667 34.2777 57.0972 31.6666 57.9583C29.0555 58.8194 26.6666 60.0555 24.5 61.6667C26.6666 63.2778 29.0555 64.5139 31.6666 65.375C34.2777 66.2361 37.0555 66.6667 40 66.6667ZM40 36.6667C41.4444 36.6667 42.6388 36.1944 43.5833 35.25C44.5277 34.3056 45 33.1111 45 31.6667C45 30.2222 44.5277 29.0278 43.5833 28.0833C42.6388 27.1389 41.4444 26.6667 40 26.6667C38.5555 26.6667 37.3611 27.1389 36.4166 28.0833C35.4722 29.0278 35 30.2222 35 31.6667C35 33.1111 35.4722 34.3056 36.4166 35.25C37.3611 36.1944 38.5555 36.6667 40 36.6667Z" fill="#FEFADC"/>
</svg>
