<svg width="210" height="73" viewBox="0 0 210 73" fill="none" xmlns="http://www.w3.org/2000/svg">
<path d="M94.8578 1.96268C95.1599 1.96268 95.3786 2.11893 95.5036 2.42101C95.5714 2.71268 95.5349 2.99393 95.3995 3.25434L84.4411 22.6085V30.5252C84.4411 31.0825 84.3005 31.4314 84.0245 31.5668C83.7589 31.6918 83.5557 31.7543 83.4203 31.7543H80.087C79.9464 31.7543 79.7432 31.6918 79.4828 31.5668C79.2172 31.4314 79.087 31.0825 79.087 30.5252V22.6085L68.2328 3.25434C68.0766 2.99393 68.0453 2.7283 68.1286 2.46268C68.1964 2.12934 68.4099 1.96268 68.7745 1.96268H72.8995C73.0661 1.96268 73.2432 2.00434 73.4411 2.08768C73.6339 2.17101 73.8005 2.35851 73.9411 2.65018L81.837 17.1085L89.7745 2.60851C89.9255 2.34809 90.0974 2.17101 90.2953 2.08768C90.488 2.00434 90.6703 1.96268 90.837 1.96268H94.8578Z" fill="black"/>
<path d="M129.801 1.96268C129.978 1.96268 130.202 2.03559 130.468 2.17101C130.728 2.29601 130.864 2.63976 130.864 3.19184V6.00434C130.864 6.6033 130.728 6.97309 130.468 7.10851C130.202 7.23351 129.978 7.29601 129.801 7.29601H120.51V30.5252C120.51 31.0825 120.385 31.4314 120.135 31.5668C119.885 31.6918 119.676 31.7543 119.51 31.7543H116.176C116.036 31.7543 115.827 31.6918 115.551 31.5668C115.286 31.4314 115.155 31.0825 115.155 30.5252V7.29601H105.864C105.697 7.29601 105.478 7.23351 105.218 7.10851C104.952 6.97309 104.822 6.6033 104.822 6.00434V3.19184C104.822 2.63976 104.952 2.29601 105.218 2.17101C105.478 2.03559 105.697 1.96268 105.864 1.96268H129.801Z" fill="black"/>
<path d="M161.876 25.2752C162.043 25.2752 162.256 25.3481 162.522 25.4835C162.798 25.6085 162.939 25.9523 162.939 26.5044V30.4835C162.939 31.0408 162.798 31.3898 162.522 31.5252C162.256 31.6502 162.043 31.7127 161.876 31.7127H149.043C148.251 31.7127 147.512 31.6658 146.834 31.5669C146.152 31.4731 145.543 31.3169 145.001 31.1085C143.803 30.6919 142.861 30.0252 142.168 29.1085C141.444 28.1814 140.923 26.9992 140.605 25.5669C140.491 24.9731 140.397 24.3117 140.314 23.5877C140.23 22.8689 140.173 22.0825 140.147 21.2335V21.046L140.209 16.4835C140.293 16.2231 140.423 15.921 140.605 15.5877C141.147 14.645 141.965 14.1398 143.064 14.0669L161.73 14.0252C161.881 14.0252 162.09 14.0981 162.355 14.2335C162.616 14.3585 162.751 14.7023 162.751 15.2544V18.1294C162.751 18.671 162.616 19.02 162.355 19.171C162.09 19.3117 161.881 19.3794 161.73 19.3794H145.564C145.564 19.3794 145.553 19.5148 145.543 19.7752C145.543 20.0408 145.532 20.3481 145.522 20.6919C145.506 21.0252 145.501 21.3273 145.501 21.5877C145.501 21.8533 145.501 21.9835 145.501 21.9835C145.527 22.0825 145.543 22.1867 145.543 22.296C145.543 22.4106 145.548 22.5148 145.564 22.6085C145.657 23.2752 145.866 23.8169 146.189 24.2335C146.48 24.5981 146.84 24.8585 147.272 25.0252C147.532 25.0981 147.814 25.1606 148.105 25.2127C148.407 25.2544 148.756 25.2752 149.147 25.2752H161.876ZM161.918 1.87936C162.053 1.87936 162.256 1.95749 162.522 2.10853C162.798 2.24916 162.939 2.59811 162.939 3.1502V6.00436C162.939 6.56166 162.798 6.91582 162.522 7.06686C162.256 7.20749 162.053 7.2752 161.918 7.2752L141.126 7.23353C140.97 7.23353 140.772 7.17103 140.522 7.04603C140.272 6.91061 140.147 6.56166 140.147 6.00436V3.19186C140.147 2.60853 140.272 2.24916 140.522 2.10853C140.772 1.95749 140.97 1.87936 141.126 1.87936H161.918Z" fill="black"/>
<path d="M92.7536 51.7897V52.0188C92.7536 51.9928 92.7536 51.972 92.7536 51.9563C92.7536 51.9459 92.7536 51.9303 92.7536 51.9147C92.7536 51.8886 92.7536 51.8678 92.7536 51.8522C92.7536 51.8418 92.7536 51.8209 92.7536 51.7897ZM93.4411 71.3938C93.5766 71.5918 93.6286 71.8834 93.587 72.2688C93.5141 72.7584 93.238 72.998 92.7536 72.998H88.7745C88.4516 72.998 88.1964 72.9251 88.0036 72.7688C87.9307 72.7272 87.8682 72.6595 87.8161 72.5605C87.7589 72.4668 87.6911 72.3678 87.6078 72.2688L81.0661 60.6647H73.4411V71.7272C73.4411 72.2845 73.3057 72.6386 73.0453 72.7897C72.7953 72.9303 72.587 72.998 72.4203 72.998H69.1286C68.962 72.998 68.7432 72.9303 68.4828 72.7897C68.2172 72.6386 68.087 72.2845 68.087 71.7272V56.5397C68.087 55.9876 68.2172 55.6438 68.4828 55.5188C68.7432 55.3834 68.962 55.3105 69.1286 55.3105H84.8578C85.7745 55.3105 86.4099 55.0501 86.7745 54.5188C87.1599 53.9772 87.3578 53.1126 87.3578 51.9147C87.3578 50.7063 87.1599 49.8418 86.7745 49.3105C86.4099 48.7688 85.7745 48.498 84.8578 48.498H69.1286C68.962 48.498 68.7432 48.4355 68.4828 48.3105C68.2172 48.1751 68.087 47.8261 68.087 47.2688V44.4147C68.087 43.847 68.2172 43.498 68.4828 43.373C68.7432 43.2376 68.962 43.1647 69.1286 43.1647H85.8161C88.2849 43.1647 90.0661 43.9355 91.1495 45.4772C92.1911 46.9668 92.7224 49.1126 92.7536 51.9147C92.7224 54.7063 92.1911 56.8522 91.1495 58.3522C90.2328 59.6022 88.8839 60.3418 87.1078 60.5605L93.4411 71.3938Z" fill="black"/>
<path d="M107.239 43.1647C107.39 43.1647 107.598 43.2376 107.864 43.373C108.125 43.5136 108.26 43.8626 108.26 44.4147V71.7272C108.26 72.2845 108.125 72.6386 107.864 72.7897C107.598 72.9303 107.39 72.998 107.239 72.998H103.906C103.765 72.998 103.562 72.9303 103.302 72.7897C103.036 72.6386 102.906 72.2845 102.906 71.7272V44.4147C102.906 43.8626 103.036 43.5136 103.302 43.373C103.562 43.2376 103.765 43.1647 103.906 43.1647H107.239Z" fill="black"/>
<path d="M142.259 49.873C142.618 51.4043 142.8 53.1855 142.8 55.2272V60.9147C142.8 62.9563 142.618 64.7428 142.259 66.2688C142.076 67.0188 141.831 67.7168 141.529 68.3522C141.238 68.9928 140.894 69.5501 140.509 70.0188C139.717 71.0345 138.696 71.7845 137.446 72.2688C136.206 72.7584 134.748 72.998 133.071 72.998H120.696C120.139 72.998 119.613 72.8626 119.113 72.5813C118.623 72.3053 118.238 71.9251 117.946 71.4355C117.748 71.1022 117.618 70.7272 117.55 70.3105L117.592 45.623C117.634 45.472 117.68 45.3209 117.738 45.1647C117.805 45.0136 117.873 44.8626 117.946 44.7063C118.529 43.7636 119.363 43.2584 120.446 43.1855V43.1647H133.071C134.722 43.1647 136.18 43.4043 137.446 43.873C138.665 44.3626 139.686 45.097 140.509 46.0813C140.894 46.597 141.238 47.1647 141.529 47.7897C141.831 48.4147 142.076 49.1126 142.259 49.873ZM122.863 67.4147C122.863 67.498 122.868 67.5553 122.884 67.5813C122.894 67.597 122.904 67.6022 122.904 67.6022H132.946C133.363 67.6022 133.748 67.5813 134.113 67.5397C134.472 67.4876 134.8 67.4095 135.092 67.3105C135.644 67.1022 136.092 66.7793 136.425 66.3313C136.785 65.8626 137.04 65.2376 137.196 64.4563C137.264 64.0553 137.321 63.6022 137.363 63.1022C137.415 62.6022 137.446 62.0553 137.446 61.4563V54.6855C137.446 54.0918 137.415 53.5397 137.363 53.0397C137.321 52.5293 137.264 52.0709 137.196 51.6647C137.04 50.8886 136.785 50.2688 136.425 49.8105C136.134 49.3834 135.686 49.0553 135.092 48.8313C134.509 48.6126 133.79 48.498 132.946 48.498H122.946C122.889 48.498 122.863 48.5761 122.863 48.7272V67.4147Z" fill="black"/>
<path d="M176.559 43.1647C176.71 43.1647 176.918 43.2376 177.184 43.373C177.444 43.5136 177.58 43.8626 177.58 44.4147V47.248C177.58 47.8209 177.444 48.1751 177.184 48.3105C176.918 48.4355 176.71 48.498 176.559 48.498H161.184C160.809 48.498 160.46 48.5293 160.142 48.5813C159.819 48.623 159.543 48.6855 159.309 48.7688C158.877 48.9355 158.517 49.2011 158.226 49.5605C157.934 49.9928 157.736 50.5188 157.642 51.1438C157.502 51.8678 157.434 52.7688 157.434 53.8522V62.248C157.434 63.3313 157.502 64.2376 157.642 64.9563C157.736 65.6126 157.934 66.1438 158.226 66.5605C158.517 66.9511 158.877 67.2168 159.309 67.3522C159.736 67.5188 160.361 67.6022 161.184 67.6022H171.309C171.726 67.6022 172.017 67.472 172.184 67.2063C172.252 67.0813 172.319 66.8886 172.392 66.623C172.476 66.3626 172.517 65.9511 172.517 65.3938C172.517 65.3938 172.517 65.2272 172.517 64.8938C172.517 64.5605 172.517 64.1438 172.517 63.6438C172.517 63.1334 172.507 62.623 172.496 62.123C172.481 61.6126 172.476 61.1855 172.476 60.8522C172.476 60.5084 172.476 60.3313 172.476 60.3313H163.476C163.319 60.3313 163.111 60.2688 162.851 60.1438C162.585 60.0084 162.455 59.6386 162.455 59.0397V56.2897C162.455 55.7063 162.585 55.347 162.851 55.2063C163.111 55.0553 163.319 54.9772 163.476 54.9772H176.267C176.517 54.9772 176.788 55.0709 177.08 55.248C177.382 55.4303 177.538 55.873 177.538 56.5813V66.2688C177.538 68.6595 177.189 70.3678 176.496 71.3938C175.772 72.4668 174.731 72.998 173.371 72.998H161.017C159.444 72.998 158.085 72.7897 156.934 72.373C155.819 71.9876 154.892 71.3261 154.142 70.3938C153.392 69.4251 152.856 68.2428 152.538 66.8522C152.371 66.1334 152.252 65.3418 152.184 64.4772C152.111 63.6022 152.08 62.6595 152.08 61.6438V54.4772C152.08 53.4928 152.111 52.5709 152.184 51.7063C152.252 50.8313 152.371 50.0397 152.538 49.3313C152.715 48.6126 152.939 47.9563 153.205 47.373C153.465 46.7793 153.778 46.248 154.142 45.7897C154.809 44.9043 155.736 44.2272 156.934 43.7688C158.085 43.3678 159.444 43.1647 161.017 43.1647H176.559Z" fill="black"/>
<path d="M208.592 66.4772C208.758 66.4772 208.972 66.5501 209.237 66.6855C209.513 66.8105 209.654 67.1542 209.654 67.7063V71.6855C209.654 72.2428 209.513 72.5917 209.237 72.7272C208.972 72.8522 208.758 72.9147 208.592 72.9147H195.758C194.967 72.9147 194.227 72.8678 193.55 72.7688C192.868 72.6751 192.258 72.5188 191.717 72.3105C190.519 71.8938 189.576 71.2272 188.883 70.3105C188.159 69.3834 187.638 68.2011 187.321 66.7688C187.206 66.1751 187.112 65.5136 187.029 64.7897C186.946 64.0709 186.888 63.2845 186.862 62.4355V62.248L186.925 57.6855C187.008 57.4251 187.138 57.123 187.321 56.7897C187.862 55.847 188.68 55.3417 189.779 55.2688L208.446 55.2272C208.597 55.2272 208.805 55.3001 209.071 55.4355C209.331 55.5605 209.467 55.9042 209.467 56.4563V59.3313C209.467 59.873 209.331 60.222 209.071 60.373C208.805 60.5136 208.597 60.5813 208.446 60.5813H192.279C192.279 60.5813 192.269 60.7167 192.258 60.9772C192.258 61.2428 192.248 61.5501 192.237 61.8938C192.222 62.2272 192.217 62.5292 192.217 62.7897C192.217 63.0553 192.217 63.1855 192.217 63.1855C192.243 63.2845 192.258 63.3886 192.258 63.498C192.258 63.6126 192.263 63.7167 192.279 63.8105C192.373 64.4772 192.581 65.0188 192.904 65.4355C193.196 65.8001 193.555 66.0605 193.987 66.2272C194.248 66.3001 194.529 66.3626 194.821 66.4147C195.123 66.4563 195.472 66.4772 195.862 66.4772H208.592ZM208.633 43.0813C208.769 43.0813 208.972 43.1595 209.237 43.3105C209.513 43.4511 209.654 43.8001 209.654 44.3522V47.2063C209.654 47.7636 209.513 48.1178 209.237 48.2688C208.972 48.4095 208.769 48.4772 208.633 48.4772L187.842 48.4355C187.685 48.4355 187.487 48.373 187.237 48.248C186.987 48.1126 186.862 47.7636 186.862 47.2063V44.3938C186.862 43.8105 186.987 43.4511 187.237 43.3105C187.487 43.1595 187.685 43.0813 187.842 43.0813H208.633Z" fill="black"/>
<path d="M59.1754 21.75C59.1754 27.1562 57.7484 31.2812 54.9046 34.125C58.0296 36.9583 59.5921 41.1875 59.5921 46.8125V52.5417C59.5921 53.849 59.5348 55.1146 59.4254 56.3333C59.3109 57.5573 59.1442 58.7083 58.9254 59.7917C58.6859 60.8646 58.3838 61.8698 58.0088 62.8125C57.6442 63.7448 57.1806 64.6146 56.6129 65.4167C55.639 66.9479 54.2171 68.1667 52.3421 69.0833C50.6442 69.9323 48.514 70.3542 45.9463 70.3542H7.5921C6.26918 70.3542 5.0296 70.0312 3.86294 69.375C2.70669 68.724 1.78481 67.8281 1.0921 66.6875C0.644185 65.8958 0.331686 65.0156 0.154602 64.0417L0.258769 5.8125C0.368143 5.46875 0.493143 5.11458 0.633769 4.75C0.769185 4.375 0.925435 4.01563 1.0921 3.66667C2.4671 1.45833 4.43064 0.265625 6.98794 0.0833333V0H44.6754C49.9098 0 53.6338 1.45313 55.8421 4.35417C58.0609 7.14583 59.1754 11.3542 59.1754 16.9792V21.75ZM12.6963 57.2292C12.6963 57.3958 12.7067 57.5104 12.7379 57.5625C12.764 57.6198 12.7796 57.6458 12.7796 57.6458H42.4671C44.1598 57.6458 45.3473 57.2813 46.0296 56.5417C46.7223 55.75 47.0713 54.3906 47.0713 52.4583V46.6458C47.0713 44.8281 46.6963 43.4688 45.9463 42.5625C45.1546 41.6458 43.6806 41.1875 41.5296 41.1875H24.9879C24.2379 41.1875 23.5765 40.9271 23.0088 40.3958C22.4359 39.8542 22.1546 39.1823 22.1546 38.375V31.3958C22.1546 30.5938 22.4359 29.9271 23.0088 29.3958C23.5765 28.8542 24.2379 28.5833 24.9879 28.5833H41.5296C43.7379 28.5833 45.1806 28.1823 45.8629 27.375C46.5973 26.5833 46.9671 25.3333 46.9671 23.625V17.75C46.9671 15.875 46.6234 14.5625 45.9463 13.8125C45.264 13.0208 44.1025 12.625 42.4671 12.625H12.8629C12.7484 12.625 18.5 51.7545 18.5 52.0982L12.6963 57.2292Z" fill="#FF7B00"/>
<path d="M12.6963 57.2292C12.6963 57.3958 12.7067 57.5104 12.7379 57.5625C12.764 57.6198 12.7796 57.6458 12.7796 57.6458H42.4671C44.1598 57.6458 45.3473 57.2813 46.0296 56.5417C46.7223 55.75 47.0713 54.3906 47.0713 52.4583V46.6458C47.0713 44.8281 46.6963 43.4688 45.9463 42.5625C45.1546 41.6458 43.6806 41.1875 41.5296 41.1875H24.9879C24.2379 41.1875 23.5765 40.9271 23.0088 40.3958C22.4359 39.8542 22.1546 39.1823 22.1546 38.375V31.3958C22.1546 30.5938 22.4359 29.9271 23.0088 29.3958C23.5765 28.8542 24.2379 28.5833 24.9879 28.5833H41.5296C43.7379 28.5833 45.1806 28.1823 45.8629 27.375C46.5973 26.5833 46.9671 25.3333 46.9671 23.625V17.75C46.9671 15.875 46.6234 14.5625 45.9463 13.8125C45.264 13.0208 44.1025 12.625 42.4671 12.625H12.8629C12.7484 12.625 18.5 51.7545 18.5 52.0982L12.6963 57.2292Z" fill="#FF7B00"/>
<mask id="mask0_48_210" style="mask-type:luminance" maskUnits="userSpaceOnUse" x="0" y="1" width="59" height="70">
<path d="M0 1.09824H58.4896V70.0982H0V1.09824Z" fill="white"/>
</mask>
<g mask="url(#mask0_48_210)">
<mask id="mask1_48_210" style="mask-type:luminance" maskUnits="userSpaceOnUse" x="-1" y="1" width="60" height="70">
<path d="M58.4896 62.0982V9.25969C58.4896 4.83781 54.9115 1.25969 50.4896 1.25969H7.98438C3.56771 1.25969 -0.015625 4.83781 -0.015625 9.25969V62.0982C-0.015625 66.5201 3.56771 70.0982 7.98438 70.0982H50.4896C54.9115 70.0982 58.4896 66.5201 58.4896 62.0982Z" fill="white"/>
</mask>
<g mask="url(#mask1_48_210)">
<path d="M42.375 69.6139C42.9427 69.4316 43.4271 68.8118 43.4219 68.2753C43.4167 67.6607 43.1667 67.2753 42.5886 66.968C41.4844 66.3795 40.2552 68.0566 41.0365 69.0878C41.3177 69.4524 42.0209 69.7285 42.375 69.6139Z" fill="white"/>
<path fill-rule="evenodd" clip-rule="evenodd" d="M43.7084 67.3326C44.0625 68.0201 43.9323 68.9472 43.4011 69.5149C42.6511 70.317 40.8334 69.968 40.4427 68.942L40.2813 68.5253H32.7604C27.9323 68.5253 25.0625 68.4576 24.75 68.343C24.1875 68.1243 22.2604 66.5149 21.5781 65.6868C20.8959 64.8639 19.9479 63.9993 19.3906 63.6972C18.9948 63.4837 17.9219 63.442 13.0886 63.4524C9.20315 63.4628 7.08856 63.4003 6.7344 63.2701C6.44794 63.1607 5.85419 62.6399 5.4219 62.1035C4.9896 61.5722 4.04169 60.6087 3.32294 59.968C2.59898 59.3274 1.93752 58.6868 1.84898 58.541C1.76044 58.3951 1.34377 57.9316 0.921895 57.5045C0.500021 57.0774 0.182313 56.6034 0.213562 56.4524C0.250021 56.2701 1.43231 57.3482 3.64585 59.593L7.02085 63.0097L13.4844 63.093L19.9427 63.1816L22.2292 65.4993C23.4896 66.7753 24.6927 67.8587 24.9063 67.9107C25.125 67.968 28.6459 67.9889 32.7396 67.9576L40.1771 67.9107L40.3959 67.4732C40.7396 66.7753 41.3021 66.4212 42.0573 66.4212C42.9427 66.4212 43.3542 66.6503 43.7084 67.3326ZM43.4219 68.2753C43.4271 68.8118 42.9427 69.4316 42.375 69.6139C42.0209 69.7285 41.3177 69.4524 41.0365 69.0878C40.2552 68.0566 41.4844 66.3795 42.5886 66.968C43.1667 67.2753 43.4167 67.6607 43.4219 68.2753ZM9.59377 65.3639C9.63544 65.9628 9.57294 66.2024 9.33335 66.3795C9.01565 66.6139 8.28648 66.5409 7.9844 66.2493C7.90106 66.1659 7.88544 65.7337 7.95315 65.2857L8.07294 64.4785L8.80731 64.5305L9.53648 64.5826L9.59377 65.3639ZM16.0729 65.2597C16.1042 65.6295 16.0834 66.0462 16.0313 66.1868C15.9636 66.3639 15.7292 66.4264 15.2761 66.3899C14.625 66.3378 14.6146 66.3274 14.5625 65.5097C14.5156 64.7545 14.5521 64.6712 14.9427 64.5722C15.75 64.3743 16.0156 64.5305 16.0729 65.2597ZM31.3438 62.6191C31.3438 63.3222 30.8073 64.093 30.2448 64.192C29.5729 64.317 28.9948 64.1243 28.5729 63.6451C28.2344 63.2545 28.1875 63.0514 28.2709 62.3743L28.3698 61.5618L27.3073 60.6243C26.7188 60.1034 26.0313 59.4524 25.7709 59.1764C24.8073 58.1399 22.9844 56.3378 22.4271 55.8691L21.849 55.3899H16.0521L14.875 54.2076C14.2292 53.5566 13.3125 52.6555 12.8438 52.2024C12.375 51.7493 11.6146 50.9628 11.1563 50.4576L10.3281 49.5305V44.7441L10.8959 44.067C11.2084 43.6972 11.8854 42.9993 12.4011 42.5149L13.3386 41.6399L16.0781 41.5514C17.7709 41.4993 18.9636 41.3847 19.1979 41.2493C19.4011 41.1295 19.8906 40.6712 20.2813 40.2285L20.9948 39.4212L21.0052 33.3014L21.0156 27.1764L19.6719 25.7389C18.9323 24.9472 17.8854 23.8847 17.3438 23.3743L16.3698 22.4524L16.2813 19.166L16.1927 15.8847L15.4167 14.968C14.9896 14.4628 13.9427 13.4212 13.0938 12.6503L11.5417 11.2545H5.85419C2.18231 11.2545 0.166687 11.192 0.166687 11.0774C0.166687 10.968 2.26044 10.9055 6.09377 10.9055H12.0156L14.1563 13.0045C15.349 14.1764 16.4115 15.3795 16.5521 15.718C16.7396 16.1607 16.8073 17.0826 16.8073 19.2024V22.0878L19.0417 24.3847C20.4167 25.8066 21.3073 26.8639 21.3698 27.1555C21.4479 27.5409 21.4584 37.9107 21.3802 39.416C21.3542 39.9264 19.8698 41.5305 19.1302 41.843C18.75 42.0045 17.7917 42.0774 16.1302 42.0774H13.6875L13.0104 42.6503C12.6406 42.9628 11.9792 43.6035 11.5469 44.0722L10.7656 44.9264L10.7084 46.8743C10.6771 47.9472 10.7188 48.9941 10.7969 49.2024C10.9323 49.5618 13.2188 51.9837 15.2761 53.942L16.2396 54.8639H22.0313L22.6094 55.343C23.4427 56.0514 23.8334 56.416 26.349 58.8847C28.4792 60.9732 29.2396 61.5722 29.2396 61.1607C29.2396 61.0722 29.4844 60.9941 29.7813 60.9941C30.5469 60.9941 31.3438 61.8222 31.3438 62.6191ZM14.8698 59.067C15.8021 59.067 16.2865 60.0878 15.6563 60.718C15.25 61.1191 14.5677 61.0566 14.1198 60.567C13.7292 60.1451 13.6875 60.1399 11.3229 60.2232C9.78179 60.2755 8.94897 60.3219 8.21528 60.0743C7.26787 59.7547 6.48578 58.945 4.55731 57.0253L1.65627 54.1399V27.1972L2.53127 26.3899C3.4476 25.5428 3.87894 25.1358 4.39104 24.9249C4.88024 24.7235 5.44314 24.7011 6.57294 24.6451L6.57901 24.6448C8.65629 24.5357 8.66727 24.5352 9.27085 23.942C9.86981 23.3535 9.87502 23.3222 9.94794 21.5982C9.98439 20.6347 9.96877 19.6503 9.90627 19.416C9.77085 18.8587 7.76565 16.5514 7.14585 16.2284C6.78127 16.0462 5.86981 15.9837 3.41669 15.9837C0.59377 15.9837 0.166687 15.9472 0.166687 15.7128C0.166687 15.4732 0.588562 15.442 3.63023 15.4941C6.99481 15.5462 7.10419 15.5566 7.69273 15.9837C8.03127 16.2232 8.46356 16.6191 8.65627 16.8587C8.85419 17.0982 9.17189 17.4472 9.3646 17.6347C10.2552 18.5097 10.3229 18.7545 10.3229 21.1243C10.3281 23.5618 10.2084 23.9785 9.30731 24.6503C8.92189 24.942 8.46877 25.0201 6.8021 25.0982C5.74313 25.1475 5.21866 25.1595 4.75735 25.3363C4.24306 25.5334 3.80728 25.9354 2.7969 26.8222L2.00523 27.5149L1.90106 38.0774C1.84898 43.8899 1.83856 49.7909 1.88544 51.1868L1.97398 53.7232L4.58856 56.343C6.74883 58.5063 7.4633 59.3104 8.34746 59.6048C8.98106 59.8157 9.7018 59.7649 11.1042 59.7649C13.7292 59.7649 13.9323 59.7441 14.1406 59.416C14.2761 59.1972 14.5469 59.067 14.8698 59.067ZM5.8594 51.916C6.36981 52.5201 6.41669 53.041 6.01044 53.4941C5.65627 53.8847 5.10419 53.9055 4.58856 53.541C4.05731 53.166 4.07815 52.4107 4.63544 51.8847L5.07294 51.4732V43.3326L4.58856 42.7597L4.1094 42.1868V29.8951L5.19794 28.7597L6.28648 27.6295L8.52606 27.5722C10.6354 27.5201 10.7865 27.4941 11.1667 27.093C11.9375 26.2753 13.1302 26.718 13.1302 27.8222C13.1302 28.8743 11.8802 29.3274 11.2344 28.5045C10.9011 28.0826 10.8177 28.067 8.83335 28.067C6.47398 28.067 6.01044 28.2493 5.08335 29.5149L4.5469 30.2389V41.817L4.97919 42.5149C5.40627 43.2076 5.41148 43.2701 5.41669 47.3066L5.4219 51.4003L5.8594 51.916ZM5.18752 52.2701C5.65106 52.2024 5.95314 52.8899 5.57294 53.1347C5.16669 53.3951 4.80731 53.218 4.80731 52.7597C4.80731 52.4472 4.91669 52.3066 5.18752 52.2701ZM23.3438 51.041C22.4323 51.8899 21.9271 52.2337 21.5052 52.2857C20.3177 52.4316 18.099 52.4055 17.5052 52.2389C16.9115 52.0722 16.1302 51.3951 14.5729 49.7232L13.8281 48.9264V47.4524C13.8281 45.8795 13.8906 45.7337 15.1042 44.4576C15.5521 43.9837 15.7084 43.9368 17.0677 43.8639C18.224 43.8014 18.6094 43.718 18.8386 43.4576C19.2813 42.9732 20.2292 43.0201 20.5781 43.5514C21.3542 44.7337 19.6406 45.9107 18.7656 44.791C18.4584 44.4055 18.2917 44.3587 17.3073 44.3691C15.9115 44.3847 15.7656 44.4472 14.9896 45.3795C14.3854 46.1035 14.3542 46.2024 14.3542 47.4368V48.7285L17.3021 51.8014L19.1667 51.8587C20.1927 51.8899 21.2031 51.8743 21.4167 51.817C21.625 51.7597 22.5886 50.9576 23.5469 50.0357C24.5104 49.1139 25.4844 48.2857 25.7084 48.1972C25.9271 48.1087 27.9011 48.0305 30.0834 48.0305C33.2292 48.0305 34.1511 47.9732 34.4948 47.7753C35.2532 47.3378 35.4922 47.1725 35.7595 47.1967C35.9218 47.2114 37.2244 47.2545 37.5 47.5982C37.7756 47.942 37.5 48.0982 37.5 48.0982C37.5 48.0982 37.1406 48.6881 36.2604 49.1881C35.1198 49.8443 35.375 49.567 34.8802 48.9941L34.5 48.5566H26.0886L25.3438 49.2128C24.9375 49.5722 24.0365 50.3951 23.3438 51.041ZM35.1511 48.6191C35.2656 48.5722 35.5052 48.567 35.6719 48.6139C35.8438 48.6555 35.75 48.6972 35.4584 48.7024C35.1719 48.7024 35.0313 48.666 35.1511 48.6191ZM35.2709 48.0357C35.3177 48.0357 35.4011 48.1139 35.4584 48.2076C35.5156 48.3066 35.4844 48.3847 35.3802 48.3847C35.2813 48.3847 35.1979 48.3066 35.1979 48.2076C35.1979 48.1139 35.2292 48.0357 35.2709 48.0357ZM30.3177 38.6191C30.4323 39.2701 30.2865 39.7753 29.974 39.8378C29.8125 39.8743 29.4636 39.8691 29.1979 39.8326C28.7552 39.7701 28.7136 39.6972 28.7136 38.9941V38.2285H29.4844C30.1406 38.2285 30.2604 38.2805 30.3177 38.6191ZM26.5834 38.9212C26.6198 39.3118 26.5469 39.593 26.3802 39.718C26.2344 39.8222 25.8334 39.8795 25.4896 39.8378C24.875 39.7649 24.8646 39.7493 24.8646 38.9837V38.2076L25.6927 38.2597C26.5052 38.3118 26.5261 38.3326 26.5834 38.9212ZM8.02085 38.5514C8.0521 38.7753 8.03127 39.1503 7.97398 39.3847C7.88023 39.7545 7.77085 39.8014 7.00523 39.8014C6.15106 39.8014 6.13544 39.791 6.02085 39.1764C5.86981 38.3639 6.08856 38.1607 7.13023 38.1503C7.87502 38.1399 7.96877 38.1816 8.02085 38.5514ZM7.86981 34.8847C8.1146 35.343 8.09898 36.1816 7.83856 36.442C7.72398 36.5566 7.34377 36.6503 7.00002 36.6503C6.19273 36.6503 5.94794 36.3951 5.94794 35.5618C5.94794 34.9993 6.02085 34.8587 6.39585 34.718C7.10419 34.4524 7.67189 34.5149 7.86981 34.8847ZM37.3698 33.8222C37.5625 34.5097 37.1563 35.442 36.5365 35.7441C35.7084 36.1451 34.8281 35.8639 34.3229 35.0357L33.974 34.4628L30.3386 34.4524C27.6836 34.447 26.4399 34.4859 25.8544 33.8842C25.3029 33.3173 25.3356 32.182 25.3229 29.9055L25.3021 26.6764L22.8177 24.2649C21.4479 22.9368 20.2448 21.6295 20.1459 21.3587C20.0365 21.0722 19.9584 19.4264 19.9584 17.4524C19.9584 14.7337 19.9063 13.9368 19.6927 13.5253C19.5469 13.2389 19.349 13.0045 19.2604 13.0045C19.1719 13.0045 18.7969 12.6816 18.4323 12.2857C18.0677 11.8847 17.3073 11.1191 16.7396 10.5774C16.1719 10.0357 15.4219 9.28574 15.0729 8.91595C14.8152 8.64149 14.6299 8.43182 14.4087 8.27167C13.6646 7.73283 12.5146 7.75449 6.83335 7.75449C0.776062 7.75449 -0.43748 7.67116 0.447937 7.33262C0.979186 7.12949 13.6511 7.21283 14.0573 7.42637C14.4375 7.61908 17.0156 10.067 18.0938 11.2493C18.3959 11.5878 18.9792 12.1764 19.3802 12.567C19.7865 12.9524 20.2031 13.4889 20.3021 13.7597C20.4063 14.041 20.4844 15.7337 20.4844 17.666V21.0774L21.3177 21.968C21.7761 22.4576 22.8021 23.4993 23.6042 24.2805C24.6387 25.293 25.1725 25.7911 25.4483 26.405C25.7598 27.0985 25.742 27.9399 25.7448 29.8378C25.7473 31.9134 25.7223 32.9721 26.2393 33.5033C26.8017 34.0811 28.0054 34.0348 30.5834 33.9941L34.0052 33.942L34.25 33.4628C34.4115 33.1503 34.7344 32.9159 35.1771 32.7805C36.1302 32.4941 37.1302 32.9732 37.3698 33.8222ZM7.31252 31.0982C7.92189 31.1816 8.12502 31.5566 7.97919 32.3326C7.85939 32.9628 7.84898 32.9732 7.01044 32.9732C6.1146 32.9732 5.95835 32.7962 5.95315 31.7857C5.94794 31.3274 6.59377 31.0045 7.31252 31.0982ZM37.2084 29.291C37.5886 30.0305 37.5365 30.416 36.9636 31.0253C36.6094 31.4055 36.2917 31.5722 35.9219 31.5722C35.3334 31.5722 34.4948 31.2441 34.4948 31.0149C34.4948 30.9368 34.3386 30.7128 34.1459 30.5201C33.8386 30.2128 33.5625 30.1712 31.8959 30.1712C29.7292 30.1712 28.9375 29.968 28.7031 29.3482C28.6146 29.1139 28.5417 27.8951 28.5417 26.6451C28.5417 24.3326 28.3646 23.5514 27.7656 23.218C27.5104 23.0722 25.9011 21.5305 24.5209 20.1035C23.7865 19.3482 23.7344 19.2285 23.6667 18.166C23.6302 17.541 23.5313 17.0357 23.4531 17.0357C23.375 17.0357 23.0729 16.8326 22.7761 16.5826C22.0781 15.9941 22.0469 15.1868 22.6875 14.4212C23.0313 14.0149 23.2917 13.8795 23.7292 13.8795C24.7396 13.8795 25.1771 14.1503 25.4063 14.9159C25.6667 15.7962 25.4219 16.4732 24.6823 16.8951C24.2396 17.1503 24.1615 17.2962 24.1615 17.916C24.1615 18.3118 24.2552 18.8066 24.3646 19.0149C24.4792 19.2232 25.5417 20.3691 26.7292 21.567L28.8906 23.7389L28.9115 25.9472C28.9219 27.1607 28.9584 28.3795 28.9896 28.6503C29.099 29.5878 29.2604 29.6451 31.7448 29.6451H34.0313L34.5938 29.0305C35.4531 28.093 36.6511 28.2128 37.2084 29.291ZM12.0729 27.2805C12.5261 27.2805 12.724 27.6712 12.5313 28.1764C12.474 28.3326 12.2656 28.4212 12.0365 28.3847C11.724 28.343 11.6406 28.218 11.6406 27.8066C11.6406 27.3639 11.7084 27.2805 12.0729 27.2805ZM57.6146 22.3743C57.6146 22.6034 57.4792 22.9212 57.3177 23.0826C56.9792 23.4264 55.9896 23.3378 55.5313 22.9212C55.3073 22.7128 54.5886 22.6607 51.9479 22.6451C49.4792 22.6347 48.5313 22.567 48.1823 22.3847C47.9271 22.2493 46.7969 21.192 45.6771 20.0357C44.5521 18.8795 43.3958 17.8118 43.1042 17.6607C42.6511 17.4264 41.7604 17.3847 37.3959 17.3847H32.2292L31.0417 16.3639C30.3906 15.8014 29.7448 15.2076 29.6146 15.0514C29.4792 14.8899 29.1459 14.7597 28.8698 14.7597C28 14.7597 27.3646 13.7493 27.8021 13.0618C28.0104 12.7337 28.7709 12.6347 29.2396 12.8795C29.5834 13.0566 29.6823 13.2493 29.6979 13.7649C29.7136 14.4368 29.9479 14.718 31.8802 16.3847C32.5313 16.9472 32.8073 16.968 39.8021 17.0097L43.4375 17.0357L45.6667 19.2128C46.8906 20.4107 48.0834 21.5514 48.3125 21.7493C48.7084 22.0878 48.9479 22.1139 51.9792 22.1139C54.9323 22.1139 55.2604 22.0826 55.5886 21.7805C56.3906 21.0357 57.6146 21.3951 57.6146 22.3743ZM41.9948 20.6868C42.0261 21.0097 42.0052 21.3847 41.9531 21.5253C41.8802 21.7128 41.625 21.7701 41.0209 21.7285C40.2969 21.6816 40.1771 21.6191 40.1302 21.2649C40.099 21.0357 40.1198 20.6607 40.1771 20.4212C40.2761 20.0305 40.3594 19.9993 41.1146 20.0462C41.9063 20.0982 41.9427 20.1191 41.9948 20.6868ZM36.599 20.7701C36.599 21.1868 36.5469 21.5826 36.4792 21.6451C36.4167 21.7128 36.0625 21.7649 35.6927 21.7649H35.0209V20.0097H36.599V20.7701ZM51.5938 16.5982C51.9427 17.0722 51.8854 17.8587 51.4844 18.2597C51.0625 18.6816 50.4792 18.7076 49.9479 18.3378C49.6563 18.1347 49.5573 17.8899 49.5573 17.3847C49.5573 16.7753 49.4167 16.5618 48.1979 15.2909L46.8334 13.8795H40.6198C35.7445 13.876 34.3117 13.9188 33.2623 13.3057C32.7377 12.9991 32.3089 12.5287 31.5938 11.8066L30.1771 10.3795H23.8594L23.2656 9.88991C22.0104 8.84824 18.349 5.06178 18.1875 4.6347C17.9844 4.10866 18.0313 1.27012 18.2396 1.27012C18.3177 1.27012 18.3906 1.64512 18.4011 2.10345C18.4479 4.43158 18.5677 4.6972 20.2031 6.17637C20.7917 6.70762 21.4688 7.37428 21.7084 7.65553C21.9531 7.94199 22.4219 8.44199 22.7604 8.77012C23.9636 9.93678 23.9688 9.93678 26.8125 9.8847C30.3073 9.8222 30.5729 9.90553 32.2136 11.6087C32.9375 12.3639 33.7552 13.067 34.0261 13.1712C34.3386 13.2909 36.7031 13.3587 40.5938 13.3587C45.6082 13.3587 46.7621 13.3304 47.5238 13.863C47.7962 14.0535 48.0184 14.3156 48.349 14.6764C49.75 16.2076 49.9271 16.3326 50.6719 16.3014C51.1615 16.2805 51.4271 16.3691 51.5938 16.5982ZM50.849 16.7857C51.125 16.8951 51.25 17.7337 51.0261 17.9576C50.8281 18.1555 50.1719 17.7805 50.1198 17.4368C50.0521 17.0097 50.4636 16.6399 50.849 16.7857ZM6.40627 13.3118C6.4896 13.6139 6.41669 13.7389 6.09898 13.8691C5.86981 13.9628 5.67189 14.0409 5.65106 14.0462C5.63544 14.0514 5.41148 13.9785 5.16148 13.8847C4.76044 13.7285 4.70835 13.6243 4.75523 13.0514C4.80731 12.4107 4.83335 12.3899 5.5521 12.3378C6.1719 12.2962 6.2969 12.3378 6.3021 12.6034C6.3021 12.7753 6.34898 13.093 6.40627 13.3118ZM3.39065 12.8639C3.48439 13.3274 3.43231 13.5045 3.15106 13.7337C2.90106 13.942 2.65106 13.9889 2.31252 13.9003C1.89065 13.7857 1.83335 13.6816 1.83335 13.0826C1.83335 12.4003 1.83856 12.3951 2.5521 12.343C3.24481 12.291 3.28127 12.3118 3.39065 12.8639ZM58 10.0982C57.7572 10.3132 57.6465 10.5982 57.5 10.5982C56.7813 11.093 55.9115 10.817 55.2292 10.1347C54.6094 9.51491 54.5208 9.10866 54.7917 8.16595C54.9375 7.66595 54.8906 7.55657 54.3125 6.99928C54.0469 6.74552 53.8566 6.54659 53.6359 6.39067C52.7875 5.79133 51.4902 5.82741 43.7448 5.82741C34.9375 5.83262 34.9323 5.83262 34.2917 6.22324C33.9375 6.43678 33.3594 6.84303 33.0052 7.12949C32.3704 7.63947 32.3542 7.63991 29.5126 7.71783L29.5052 7.71803C27.9323 7.7597 26.3802 7.74928 26.0573 7.68678C25.625 7.60345 25.0104 7.1347 23.7761 5.93157C21.9271 4.1347 21.8125 3.88991 21.9271 2.15032L21.9948 1.18678L22.0261 2.33782L22.0625 3.48887L23.8177 5.22845C24.7813 6.18158 25.7084 7.01491 25.875 7.08262C26.0417 7.15032 27.5261 7.20762 29.1719 7.21282C32.0417 7.22845 32.1875 7.21282 32.5938 6.83262C32.8334 6.61387 33.3386 6.20241 33.7188 5.91595L34.4063 5.38991L43.3386 5.33782C48.25 5.30658 52.5261 5.33262 52.8386 5.38991C53.1563 5.4472 53.8646 5.86907 54.4167 6.32741C55.3229 7.07741 55.4948 7.15553 56.1459 7.08782C56.9531 7.0097 57.4708 7.6972 57.7572 8.22845C58.002 8.68678 58 9.83261 58 10.0982ZM56.3698 7.60866C57.8906 7.46282 58.3438 9.55137 56.9115 10.0826C56.3906 10.2701 56.0469 10.1972 55.6927 9.8222C55.1615 9.24928 55.099 8.85345 55.4636 8.22845C55.7084 7.80137 55.9323 7.65032 56.3698 7.60866ZM15.5469 3.28574C16.0261 3.88991 16.0365 4.49407 15.5781 4.95241C15.3814 5.14914 15.2885 5.24816 15.1787 5.27313C15.0619 5.29971 14.9259 5.24231 14.625 5.12949C14.375 5.03053 14.1042 4.77532 14.0261 4.56178C13.8386 4.05657 14.1146 3.24928 14.5469 3.01491C14.7969 2.87949 14.8802 2.64512 14.8802 2.05657C14.8802 1.62428 14.9636 1.27012 15.0625 1.27012C15.1667 1.27012 15.2292 1.59824 15.2084 2.03574C15.1771 2.59824 15.2709 2.93157 15.5469 3.28574ZM11.6927 3.10866C12.2344 3.79616 12.2709 4.6972 11.7709 5.08262C11.3646 5.39512 10.974 5.35345 10.5365 4.94199C10.0261 4.47324 10.0469 3.81178 10.5886 3.27012C10.9271 2.93678 11.0261 2.65032 11.0261 2.05137C11.0261 1.61387 11.1094 1.27012 11.2136 1.27012C11.3281 1.27012 11.3854 1.55137 11.3542 1.94199C11.3229 2.42637 11.4167 2.75449 11.6927 3.10866ZM7.95835 3.22324C8.46877 3.83262 8.52606 4.52012 8.1094 4.97845C7.72919 5.40032 7.08335 5.38991 6.65106 4.95241C6.17189 4.47324 6.20835 3.79616 6.7344 3.27012C7.07294 2.93678 7.1719 2.65032 7.1719 2.05137C7.1719 1.4472 7.2396 1.27012 7.45835 1.27012C7.69273 1.27012 7.72398 1.39512 7.63023 1.98887C7.53127 2.59303 7.58335 2.78053 7.95835 3.22324ZM4.28648 3.27012C4.81252 3.79616 4.84898 4.47324 4.36981 4.95241C3.92189 5.39512 3.4896 5.39512 2.90627 4.93678C2.31773 4.47324 2.31252 3.83262 2.88544 3.30137C3.22919 2.98366 3.32294 2.72324 3.32294 2.08262C3.32294 1.47845 3.39065 1.27012 3.58335 1.27012C3.77606 1.27012 3.84898 1.47845 3.84898 2.05137C3.84898 2.65032 3.94794 2.93678 4.28648 3.27012ZM48.6875 2.69199C48.9427 3.16074 48.7709 3.84824 48.375 3.95762C47.9479 4.0722 47.224 3.91074 47.0677 3.66595C46.9063 3.41595 46.8959 2.97324 47.0365 2.59824C47.2031 2.16074 48.4427 2.22845 48.6875 2.69199ZM42.5521 3.08782C42.5521 3.68678 42.4792 3.89512 42.2448 3.95241C41.3646 4.18157 40.9271 3.85345 41.0052 3.01491C41.0625 2.44199 41.099 2.40553 41.8073 2.35866L42.5521 2.30137V3.08782ZM36.5677 3.09303C36.599 3.52012 36.5365 3.83262 36.3906 3.92116C36.1146 4.09824 35.6823 4.11387 35.2969 3.96803C35.1042 3.89512 35.0209 3.62949 35.0209 3.08262V2.30137L35.7656 2.35866C36.4948 2.41074 36.5104 2.42637 36.5677 3.09303Z" fill="white"/>
<path d="M8.28127 53.1712C8.49481 52.9628 8.40627 52.4576 8.11981 52.218C7.87502 52.0201 7.78648 52.0462 7.50002 52.3951C7.24481 52.7128 7.21356 52.8639 7.36981 53.0462C7.57814 53.3014 8.08335 53.3691 8.28127 53.1712Z" fill="white"/>
<path fill-rule="evenodd" clip-rule="evenodd" d="M8.65106 53.4212C9.01565 52.9055 8.99481 52.5514 8.57294 52.0149C8.24481 51.5982 8.22398 51.3014 8.22398 47.3535V43.1399L9.2969 41.9993C9.88544 41.3691 10.8438 40.4368 11.4271 39.9316L12.4896 39.0149L14.2031 38.9212C16.0938 38.8222 16.5469 38.6139 17.2969 37.5149C17.6927 36.9316 17.6979 36.8899 17.6459 31.968L17.5938 27.0097L16.5 26.0045C15.5781 25.1607 15.4063 24.9107 15.4063 24.4212C15.4063 23.5357 15.1302 23.166 14.4792 23.166C13.5261 23.1712 13.0521 23.7649 13.3386 24.5826C13.5052 25.0618 14.3073 25.4212 14.6875 25.1868C14.9167 25.0462 17.1563 27.2857 17.1667 27.6712C17.1719 27.8378 17.1667 29.942 17.1563 32.343C17.1354 37.093 17.0886 37.3482 16.125 38.0357C15.6979 38.343 15.3542 38.4003 14.0209 38.4003C12.4375 38.4003 12.4271 38.4055 11.6823 39.0462C10.1719 40.3639 8.70835 41.8378 8.20835 42.5462L7.69794 43.2805V51.5722L7.26044 51.916C6.69794 52.3639 6.67189 53.1607 7.21356 53.541C7.76044 53.9264 8.33335 53.8795 8.65106 53.4212ZM8.11981 52.218C8.40627 52.4576 8.49481 52.9628 8.28127 53.1712C8.08335 53.3691 7.57814 53.3014 7.36981 53.0462C7.21356 52.8639 7.24481 52.7128 7.50002 52.3951C7.78648 52.0462 7.87502 52.0201 8.11981 52.218Z" fill="white"/>
<path d="M5.57294 53.1347C5.95314 52.8899 5.65106 52.2024 5.18752 52.2701C4.91669 52.3066 4.80731 52.4472 4.80731 52.7597C4.80731 53.218 5.16669 53.3951 5.57294 53.1347Z" fill="white"/>
<path d="M12.5313 28.1764C12.724 27.6712 12.5261 27.2805 12.0729 27.2805C11.7084 27.2805 11.6406 27.3639 11.6406 27.8066C11.6406 28.218 11.724 28.343 12.0365 28.3847C12.2656 28.4212 12.474 28.3326 12.5313 28.1764Z" fill="white"/>
<path d="M51.0261 17.9576C51.25 17.7337 51.125 16.8951 50.849 16.7857C50.4636 16.6399 50.0521 17.0097 50.1198 17.4368C50.1719 17.7805 50.8281 18.1555 51.0261 17.9576Z" fill="white"/>
<path d="M56.9115 10.0826C58.3438 9.55137 57.8906 7.46282 56.3698 7.60866C55.9323 7.65032 55.7084 7.80137 55.4636 8.22845C55.099 8.85345 55.1615 9.24928 55.6927 9.8222C56.0469 10.1972 56.3906 10.2701 56.9115 10.0826Z" fill="white"/>
<path d="M35.4584 48.2076C35.4011 48.1139 35.3177 48.0357 35.2709 48.0357C35.2292 48.0357 35.1979 48.1139 35.1979 48.2076C35.1979 48.3066 35.2813 48.3847 35.3802 48.3847C35.4844 48.3847 35.5156 48.3066 35.4584 48.2076Z" fill="white"/>
<path d="M35.6719 48.6139C35.5052 48.567 35.2656 48.5722 35.1511 48.6191C35.0313 48.666 35.1719 48.7024 35.4584 48.7024C35.75 48.6972 35.8438 48.6555 35.6719 48.6139Z" fill="white"/>
</g>
</g>
</svg>
