<svg width="210" height="74" viewBox="0 0 210 74" fill="none" xmlns="http://www.w3.org/2000/svg">
<path d="M94.8578 2.86444C95.1599 2.86444 95.3786 3.02069 95.5036 3.32277C95.5714 3.61444 95.5349 3.89569 95.3995 4.15611L84.4411 23.5103V31.4269C84.4411 31.9842 84.3005 32.3332 84.0245 32.4686C83.7589 32.5936 83.5557 32.6561 83.4203 32.6561H80.087C79.9464 32.6561 79.7432 32.5936 79.4828 32.4686C79.2172 32.3332 79.087 31.9842 79.087 31.4269V23.5103L68.2328 4.15611C68.0766 3.89569 68.0453 3.63007 68.1286 3.36444C68.1964 3.03111 68.4099 2.86444 68.7745 2.86444H72.8995C73.0661 2.86444 73.2432 2.90611 73.4411 2.98944C73.6339 3.07277 73.8005 3.26027 73.9411 3.55194L81.837 18.0103L89.7745 3.51027C89.9255 3.24986 90.0974 3.07277 90.2953 2.98944C90.488 2.90611 90.6703 2.86444 90.837 2.86444H94.8578Z" fill="white"/>
<path d="M129.801 2.86444C129.978 2.86444 130.202 2.93736 130.468 3.07277C130.728 3.19777 130.864 3.54152 130.864 4.09361V6.90611C130.864 7.50507 130.728 7.87486 130.468 8.01027C130.202 8.13527 129.978 8.19777 129.801 8.19777H120.509V31.4269C120.509 31.9842 120.384 32.3332 120.134 32.4686C119.884 32.5936 119.676 32.6561 119.509 32.6561H116.176C116.036 32.6561 115.827 32.5936 115.551 32.4686C115.286 32.3332 115.155 31.9842 115.155 31.4269V8.19777H105.864C105.697 8.19777 105.478 8.13527 105.218 8.01027C104.952 7.87486 104.822 7.50507 104.822 6.90611V4.09361C104.822 3.54152 104.952 3.19777 105.218 3.07277C105.478 2.93736 105.697 2.86444 105.864 2.86444H129.801Z" fill="white"/>
<path d="M161.876 26.1769C162.043 26.1769 162.256 26.2499 162.522 26.3853C162.798 26.5103 162.939 26.854 162.939 27.4061V31.3853C162.939 31.9426 162.798 32.2915 162.522 32.4269C162.256 32.5519 162.043 32.6144 161.876 32.6144H149.043C148.251 32.6144 147.512 32.5676 146.835 32.4686C146.152 32.3749 145.543 32.2186 145.001 32.0103C143.803 31.5936 142.861 30.9269 142.168 30.0103C141.444 29.0832 140.923 27.9009 140.605 26.4686C140.491 25.8749 140.397 25.2134 140.314 24.4894C140.23 23.7707 140.173 22.9842 140.147 22.1353V21.9478L140.21 17.3853C140.293 17.1249 140.423 16.8228 140.605 16.4894C141.147 15.5467 141.965 15.0415 143.064 14.9686L161.73 14.9269C161.881 14.9269 162.09 14.9999 162.355 15.1353C162.616 15.2603 162.751 15.604 162.751 16.1561V19.0311C162.751 19.5728 162.616 19.9217 162.355 20.0728C162.09 20.2134 161.881 20.2811 161.73 20.2811H145.564C145.564 20.2811 145.553 20.4165 145.543 20.6769C145.543 20.9426 145.532 21.2499 145.522 21.5936C145.506 21.9269 145.501 22.229 145.501 22.4894C145.501 22.7551 145.501 22.8853 145.501 22.8853C145.527 22.9842 145.543 23.0884 145.543 23.1978C145.543 23.3124 145.548 23.4165 145.564 23.5103C145.657 24.1769 145.866 24.7186 146.189 25.1353C146.48 25.4999 146.84 25.7603 147.272 25.9269C147.532 25.9999 147.814 26.0624 148.105 26.1144C148.407 26.1561 148.756 26.1769 149.147 26.1769H161.876ZM161.918 2.78111C162.053 2.78111 162.256 2.85924 162.522 3.01028C162.798 3.1509 162.939 3.49986 162.939 4.05195V6.90611C162.939 7.4634 162.798 7.81757 162.522 7.96861C162.256 8.10924 162.053 8.17695 161.918 8.17695L141.126 8.13528C140.97 8.13528 140.772 8.07278 140.522 7.94778C140.272 7.81236 140.147 7.4634 140.147 6.90611V4.09361C140.147 3.51028 140.272 3.1509 140.522 3.01028C140.772 2.85924 140.97 2.78111 141.126 2.78111H161.918Z" fill="white"/>
<path d="M92.7536 52.6914V52.9206C92.7536 52.8946 92.7536 52.8737 92.7536 52.8581C92.7536 52.8477 92.7536 52.8321 92.7536 52.8164C92.7536 52.7904 92.7536 52.7696 92.7536 52.7539C92.7536 52.7435 92.7536 52.7227 92.7536 52.6914ZM93.4411 72.2956C93.5766 72.4935 93.6286 72.7852 93.587 73.1706C93.5141 73.6602 93.238 73.8998 92.7536 73.8998H88.7745C88.4516 73.8998 88.1964 73.8269 88.0036 73.6706C87.9307 73.6289 87.8682 73.5612 87.8161 73.4623C87.7589 73.3685 87.6911 73.2696 87.6078 73.1706L81.0661 61.5664H73.4411V72.6289C73.4411 73.1862 73.3057 73.5404 73.0453 73.6914C72.7953 73.8321 72.587 73.8998 72.4203 73.8998H69.1286C68.962 73.8998 68.7432 73.8321 68.4828 73.6914C68.2172 73.5404 68.087 73.1862 68.087 72.6289V57.4414C68.087 56.8894 68.2172 56.5456 68.4828 56.4206C68.7432 56.2852 68.962 56.2123 69.1286 56.2123H84.8578C85.7745 56.2123 86.4099 55.9519 86.7745 55.4206C87.1599 54.8789 87.3578 54.0144 87.3578 52.8164C87.3578 51.6081 87.1599 50.7435 86.7745 50.2123C86.4099 49.6706 85.7745 49.3998 84.8578 49.3998H69.1286C68.962 49.3998 68.7432 49.3373 68.4828 49.2123C68.2172 49.0769 68.087 48.7279 68.087 48.1706V45.3164C68.087 44.7487 68.2172 44.3998 68.4828 44.2748C68.7432 44.1394 68.962 44.0664 69.1286 44.0664H85.8161C88.2849 44.0664 90.0661 44.8373 91.1495 46.3789C92.1911 47.8685 92.7224 50.0144 92.7536 52.8164C92.7224 55.6081 92.1911 57.7539 91.1495 59.2539C90.2328 60.5039 88.8839 61.2435 87.1078 61.4623L93.4411 72.2956Z" fill="white"/>
<path d="M107.239 44.0664C107.39 44.0664 107.599 44.1394 107.864 44.2748C108.125 44.4154 108.26 44.7644 108.26 45.3164V72.6289C108.26 73.1862 108.125 73.5404 107.864 73.6914C107.599 73.8321 107.39 73.8998 107.239 73.8998H103.906C103.765 73.8998 103.562 73.8321 103.302 73.6914C103.036 73.5404 102.906 73.1862 102.906 72.6289V45.3164C102.906 44.7644 103.036 44.4154 103.302 44.2748C103.562 44.1394 103.765 44.0664 103.906 44.0664H107.239Z" fill="white"/>
<path d="M142.259 50.7748C142.618 52.306 142.8 54.0873 142.8 56.1289V61.8164C142.8 63.8581 142.618 65.6446 142.259 67.1706C142.076 67.9206 141.831 68.6185 141.529 69.2539C141.238 69.8946 140.894 70.4519 140.509 70.9206C139.717 71.9362 138.696 72.6862 137.446 73.1706C136.206 73.6602 134.748 73.8998 133.071 73.8998H120.696C120.139 73.8998 119.613 73.7644 119.113 73.4831C118.623 73.2071 118.238 72.8269 117.946 72.3373C117.748 72.0039 117.618 71.6289 117.55 71.2123L117.592 46.5248C117.634 46.3737 117.68 46.2227 117.738 46.0664C117.805 45.9154 117.873 45.7644 117.946 45.6081C118.529 44.6654 119.363 44.1602 120.446 44.0873V44.0664H133.071C134.722 44.0664 136.18 44.306 137.446 44.7748C138.665 45.2644 139.686 45.9987 140.509 46.9831C140.894 47.4987 141.238 48.0664 141.529 48.6914C141.831 49.3164 142.076 50.0144 142.259 50.7748ZM122.863 68.3164C122.863 68.3998 122.868 68.4571 122.884 68.4831C122.894 68.4987 122.904 68.5039 122.904 68.5039H132.946C133.363 68.5039 133.748 68.4831 134.113 68.4414C134.472 68.3894 134.8 68.3112 135.092 68.2123C135.644 68.0039 136.092 67.681 136.425 67.2331C136.785 66.7644 137.04 66.1394 137.196 65.3581C137.264 64.9571 137.321 64.5039 137.363 64.0039C137.415 63.5039 137.446 62.9571 137.446 62.3581V55.5873C137.446 54.9935 137.415 54.4414 137.363 53.9414C137.321 53.431 137.264 52.9727 137.196 52.5664C137.04 51.7904 136.785 51.1706 136.425 50.7123C136.134 50.2852 135.686 49.9571 135.092 49.7331C134.509 49.5144 133.79 49.3998 132.946 49.3998H122.946C122.889 49.3998 122.863 49.4779 122.863 49.6289V68.3164Z" fill="white"/>
<path d="M176.559 44.0664C176.71 44.0664 176.918 44.1394 177.184 44.2748C177.444 44.4154 177.58 44.7644 177.58 45.3164V48.1498C177.58 48.7227 177.444 49.0769 177.184 49.2123C176.918 49.3373 176.71 49.3998 176.559 49.3998H161.184C160.809 49.3998 160.46 49.431 160.142 49.4831C159.819 49.5248 159.543 49.5873 159.309 49.6706C158.877 49.8373 158.517 50.1029 158.226 50.4623C157.934 50.8946 157.736 51.4206 157.642 52.0456C157.502 52.7696 157.434 53.6706 157.434 54.7539V63.1498C157.434 64.2331 157.502 65.1394 157.642 65.8581C157.736 66.5144 157.934 67.0456 158.226 67.4623C158.517 67.8529 158.877 68.1185 159.309 68.2539C159.736 68.4206 160.361 68.5039 161.184 68.5039H171.309C171.726 68.5039 172.017 68.3737 172.184 68.1081C172.252 67.9831 172.319 67.7904 172.392 67.5248C172.476 67.2644 172.517 66.8529 172.517 66.2956C172.517 66.2956 172.517 66.1289 172.517 65.7956C172.517 65.4623 172.517 65.0456 172.517 64.5456C172.517 64.0352 172.507 63.5248 172.496 63.0248C172.481 62.5144 172.476 62.0873 172.476 61.7539C172.476 61.4102 172.476 61.2331 172.476 61.2331H163.476C163.319 61.2331 163.111 61.1706 162.851 61.0456C162.585 60.9102 162.455 60.5404 162.455 59.9414V57.1914C162.455 56.6081 162.585 56.2487 162.851 56.1081C163.111 55.9571 163.319 55.8789 163.476 55.8789H176.267C176.517 55.8789 176.788 55.9727 177.08 56.1498C177.382 56.3321 177.538 56.7748 177.538 57.4831V67.1706C177.538 69.5612 177.189 71.2696 176.496 72.2956C175.772 73.3685 174.731 73.8998 173.371 73.8998H161.017C159.444 73.8998 158.085 73.6914 156.934 73.2748C155.819 72.8894 154.892 72.2279 154.142 71.2956C153.392 70.3269 152.856 69.1446 152.538 67.7539C152.371 67.0352 152.252 66.2435 152.184 65.3789C152.111 64.5039 152.08 63.5612 152.08 62.5456V55.3789C152.08 54.3946 152.111 53.4727 152.184 52.6081C152.252 51.7331 152.371 50.9414 152.538 50.2331C152.715 49.5144 152.939 48.8581 153.205 48.2748C153.465 47.681 153.778 47.1498 154.142 46.6914C154.809 45.806 155.736 45.1289 156.934 44.6706C158.085 44.2696 159.444 44.0664 161.017 44.0664H176.559Z" fill="white"/>
<path d="M208.592 67.3789C208.758 67.3789 208.972 67.4518 209.237 67.5873C209.513 67.7123 209.654 68.056 209.654 68.6081V72.5873C209.654 73.1446 209.513 73.4935 209.237 73.6289C208.972 73.7539 208.758 73.8164 208.592 73.8164H195.758C194.967 73.8164 194.227 73.7696 193.55 73.6706C192.868 73.5768 192.258 73.4206 191.717 73.2123C190.519 72.7956 189.576 72.1289 188.883 71.2123C188.159 70.2852 187.638 69.1029 187.321 67.6706C187.206 67.0768 187.112 66.4154 187.029 65.6914C186.946 64.9727 186.888 64.1862 186.862 63.3373V63.1498L186.925 58.5873C187.008 58.3268 187.138 58.0248 187.321 57.6914C187.862 56.7487 188.68 56.2435 189.779 56.1706L208.446 56.1289C208.597 56.1289 208.805 56.2018 209.071 56.3373C209.331 56.4623 209.467 56.806 209.467 57.3581V60.2331C209.467 60.7748 209.331 61.1237 209.071 61.2748C208.805 61.4154 208.597 61.4831 208.446 61.4831H192.279C192.279 61.4831 192.269 61.6185 192.258 61.8789C192.258 62.1446 192.248 62.4518 192.237 62.7956C192.222 63.1289 192.217 63.431 192.217 63.6914C192.217 63.9571 192.217 64.0873 192.217 64.0873C192.243 64.1862 192.258 64.2904 192.258 64.3998C192.258 64.5143 192.263 64.6185 192.279 64.7123C192.373 65.3789 192.581 65.9206 192.904 66.3373C193.196 66.7018 193.555 66.9623 193.987 67.1289C194.248 67.2018 194.529 67.2643 194.821 67.3164C195.123 67.3581 195.472 67.3789 195.862 67.3789H208.592ZM208.633 43.9831C208.769 43.9831 208.972 44.0612 209.237 44.2123C209.513 44.3529 209.654 44.7018 209.654 45.2539V48.1081C209.654 48.6654 209.513 49.0196 209.237 49.1706C208.972 49.3112 208.769 49.3789 208.633 49.3789L187.842 49.3373C187.685 49.3373 187.487 49.2748 187.237 49.1498C186.987 49.0143 186.862 48.6654 186.862 48.1081V45.2956C186.862 44.7123 186.987 44.3529 187.237 44.2123C187.487 44.0612 187.685 43.9831 187.842 43.9831H208.633Z" fill="white"/>
<path d="M59.1754 22.6518C59.1754 28.058 57.7484 32.183 54.9046 35.0268C58.0296 37.8601 59.5921 42.0893 59.5921 47.7143V53.4434C59.5921 54.7507 59.5348 56.0163 59.4254 57.2351C59.3109 58.4591 59.1442 59.6101 58.9254 60.6934C58.6859 61.7663 58.3838 62.7716 58.0088 63.7143C57.6442 64.6466 57.1806 65.5164 56.6129 66.3184C55.639 67.8497 54.2171 69.0684 52.3421 69.9851C50.6442 70.8341 48.514 71.2559 45.9463 71.2559H7.5921C6.26918 71.2559 5.0296 70.933 3.86294 70.2768C2.70669 69.6257 1.78481 68.7299 1.0921 67.5893C0.644185 66.7976 0.331686 65.9174 0.154602 64.9434L0.258769 6.71426C0.368143 6.37051 0.493143 6.01635 0.633769 5.65176C0.769185 5.27676 0.925435 4.91739 1.0921 4.56843C2.4671 2.3601 4.43064 1.16739 6.98794 0.985097V0.901764H44.6754C49.9098 0.901764 53.6338 2.35489 55.8421 5.25593C58.0609 8.0476 59.1754 12.2559 59.1754 17.8809V22.6518ZM12.6963 58.1309C12.6963 58.2976 12.7067 58.4122 12.7379 58.4643C12.764 58.5216 12.7796 58.5476 12.7796 58.5476H42.4671C44.1598 58.5476 45.3473 58.183 46.0296 57.4434C46.7223 56.6518 47.0713 55.2924 47.0713 53.3601V47.5476C47.0713 45.7299 46.6963 44.3705 45.9463 43.4643C45.1546 42.5476 43.6806 42.0893 41.5296 42.0893H24.9879C24.2379 42.0893 23.5765 41.8289 23.0088 41.2976C22.4359 40.7559 22.1546 40.0841 22.1546 39.2768V32.2976C22.1546 31.4955 22.4359 30.8288 23.0088 30.2976C23.5765 29.7559 24.2379 29.4851 24.9879 29.4851H41.5296C43.7379 29.4851 45.1806 29.0841 45.8629 28.2768C46.5973 27.4851 46.9671 26.2351 46.9671 24.5268V18.6518C46.9671 16.7768 46.6234 15.4643 45.9463 14.7143C45.264 13.9226 44.1025 13.5268 42.4671 13.5268H12.8629C12.7484 13.5268 18.5 52.6563 18.5 53L12.6963 58.1309Z" fill="#FF7B00"/>
<path d="M12.6963 58.1309C12.6963 58.2976 12.7067 58.4122 12.7379 58.4643C12.764 58.5216 12.7796 58.5476 12.7796 58.5476H42.4671C44.1598 58.5476 45.3473 58.183 46.0296 57.4434C46.7223 56.6518 47.0713 55.2924 47.0713 53.3601V47.5476C47.0713 45.7299 46.6963 44.3705 45.9463 43.4643C45.1546 42.5476 43.6806 42.0893 41.5296 42.0893H24.9879C24.2379 42.0893 23.5765 41.8289 23.0088 41.2976C22.4359 40.7559 22.1546 40.0841 22.1546 39.2768V32.2976C22.1546 31.4955 22.4359 30.8288 23.0088 30.2976C23.5765 29.7559 24.2379 29.4851 24.9879 29.4851H41.5296C43.7379 29.4851 45.1806 29.0841 45.8629 28.2768C46.5973 27.4851 46.9671 26.2351 46.9671 24.5268V18.6518C46.9671 16.7768 46.6234 15.4643 45.9463 14.7143C45.264 13.9226 44.1025 13.5268 42.4671 13.5268H12.8629C12.7484 13.5268 18.5 52.6563 18.5 53L12.6963 58.1309Z" fill="#FF7B00"/>
<mask id="mask0_48_211" style="mask-type:luminance" maskUnits="userSpaceOnUse" x="0" y="2" width="59" height="69">
<path d="M0 2H58.4896V71H0V2Z" fill="white"/>
</mask>
<g mask="url(#mask0_48_211)">
<mask id="mask1_48_211" style="mask-type:luminance" maskUnits="userSpaceOnUse" x="-1" y="2" width="60" height="69">
<path d="M58.4896 63V10.1615C58.4896 5.73958 54.9115 2.16145 50.4896 2.16145H7.98438C3.56771 2.16145 -0.015625 5.73958 -0.015625 10.1615V63C-0.015625 67.4219 3.56771 71 7.98438 71H50.4896C54.9115 71 58.4896 67.4219 58.4896 63Z" fill="white"/>
</mask>
<g mask="url(#mask1_48_211)">
<path d="M42.375 70.5156C42.9427 70.3333 43.4271 69.7136 43.4219 69.1771C43.4167 68.5625 43.1667 68.1771 42.5885 67.8698C41.4844 67.2813 40.2552 68.9583 41.0365 69.9896C41.3177 70.3542 42.0208 70.6302 42.375 70.5156Z" fill="white"/>
<path fill-rule="evenodd" clip-rule="evenodd" d="M43.7083 68.2344C44.0625 68.9219 43.9323 69.849 43.401 70.4167C42.651 71.2188 40.8333 70.8698 40.4427 69.8438L40.2813 69.4271H32.7604C27.9323 69.4271 25.0625 69.3594 24.75 69.2448C24.1875 69.026 22.2604 67.4167 21.5781 66.5885C20.8958 65.7656 19.9479 64.901 19.3906 64.599C18.9948 64.3854 17.9219 64.3438 13.0885 64.3542C9.20313 64.3646 7.08855 64.3021 6.73438 64.1719C6.44792 64.0625 5.85417 63.5417 5.42188 63.0052C4.98959 62.474 4.04167 61.5104 3.32292 60.8698C2.59896 60.2292 1.9375 59.5885 1.84896 59.4427C1.76042 59.2969 1.34375 58.8333 0.92188 58.4063C0.500005 57.9792 0.182297 57.5052 0.213547 57.3542C0.250005 57.1719 1.4323 58.25 3.64584 60.4948L7.02084 63.9115L13.4844 63.9948L19.9427 64.0833L22.2292 66.401C23.4896 67.6771 24.6927 68.7604 24.9063 68.8125C25.125 68.8698 28.6458 68.8906 32.7396 68.8594L40.1771 68.8125L40.3958 68.375C40.7396 67.6771 41.3021 67.3229 42.0573 67.3229C42.9427 67.3229 43.3542 67.5521 43.7083 68.2344ZM43.4219 69.1771C43.4271 69.7136 42.9427 70.3333 42.375 70.5156C42.0208 70.6302 41.3177 70.3542 41.0365 69.9896C40.2552 68.9583 41.4844 67.2813 42.5885 67.8698C43.1667 68.1771 43.4167 68.5625 43.4219 69.1771ZM9.59375 66.2656C9.63542 66.8646 9.57292 67.1042 9.33334 67.2813C9.01563 67.5156 8.28646 67.4427 7.98438 67.151C7.90105 67.0677 7.88542 66.6354 7.95313 66.1875L8.07292 65.3802L8.8073 65.4323L9.53646 65.4844L9.59375 66.2656ZM16.0729 66.1615C16.1042 66.5313 16.0833 66.9479 16.0313 67.0885C15.9635 67.2656 15.7292 67.3281 15.276 67.2917C14.625 67.2396 14.6146 67.2292 14.5625 66.4115C14.5156 65.6563 14.5521 65.5729 14.9427 65.474C15.75 65.276 16.0156 65.4323 16.0729 66.1615ZM31.3438 63.5208C31.3438 64.224 30.8073 64.9948 30.2448 65.0938C29.5729 65.2188 28.9948 65.026 28.5729 64.5469C28.2344 64.1563 28.1875 63.9531 28.2708 63.276L28.3698 62.4635L27.3073 61.526C26.7188 61.0052 26.0313 60.3542 25.7708 60.0781C24.8073 59.0417 22.9844 57.2396 22.4271 56.7708L21.849 56.2917H16.0521L14.875 55.1094C14.2292 54.4583 13.3125 53.5573 12.8438 53.1042C12.375 52.651 11.6146 51.8646 11.1563 51.3594L10.3281 50.4323V45.6458L10.8958 44.9688C11.2083 44.599 11.8854 43.901 12.401 43.4167L13.3385 42.5417L16.0781 42.4531C17.7708 42.401 18.9635 42.2865 19.1979 42.151C19.401 42.0313 19.8906 41.5729 20.2813 41.1302L20.9948 40.3229L21.0052 34.2031L21.0156 28.0781L19.6719 26.6406C18.9323 25.849 17.8854 24.7865 17.3438 24.276L16.3698 23.3542L16.2813 20.0677L16.1927 16.7865L15.4167 15.8698C14.9896 15.3646 13.9427 14.3229 13.0938 13.5521L11.5417 12.1563H5.85417C2.1823 12.1563 0.166672 12.0938 0.166672 11.9792C0.166672 11.8698 2.26042 11.8073 6.09375 11.8073H12.0156L14.1563 13.9063C15.349 15.0781 16.4115 16.2813 16.5521 16.6198C16.7396 17.0625 16.8073 17.9844 16.8073 20.1042V22.9896L19.0417 25.2865C20.4167 26.7083 21.3073 27.7656 21.3698 28.0573C21.4479 28.4427 21.4583 38.8125 21.3802 40.3177C21.3542 40.8281 19.8698 42.4323 19.1302 42.7448C18.75 42.9063 17.7917 42.9792 16.1302 42.9792H13.6875L13.0104 43.5521C12.6406 43.8646 11.9792 44.5052 11.5469 44.974L10.7656 45.8281L10.7083 47.776C10.6771 48.849 10.7188 49.8958 10.7969 50.1042C10.9323 50.4635 13.2188 52.8854 15.276 54.8438L16.2396 55.7656H22.0313L22.6094 56.2448C23.4427 56.9531 23.8333 57.3177 26.349 59.7865C28.4792 61.875 29.2396 62.474 29.2396 62.0625C29.2396 61.974 29.4844 61.8958 29.7813 61.8958C30.5469 61.8958 31.3438 62.724 31.3438 63.5208ZM14.8698 59.9688C15.8021 59.9688 16.2865 60.9896 15.6563 61.6198C15.25 62.0208 14.5677 61.9583 14.1198 61.4688C13.7292 61.0469 13.6875 61.0417 11.3229 61.125C9.78178 61.1773 8.94895 61.2236 8.21527 60.9761C7.26785 60.6564 6.48576 59.8468 4.5573 57.9271L1.65626 55.0417V28.099L2.53126 27.2917C3.44759 26.4446 3.87892 26.0376 4.39103 25.8267C4.88022 25.6253 5.44313 25.6029 6.57292 25.5469L6.57899 25.5466C8.65628 25.4375 8.66726 25.4369 9.27084 24.8438C9.8698 24.2552 9.875 24.224 9.94792 22.5C9.98438 21.5365 9.96875 20.5521 9.90625 20.3177C9.77084 19.7604 7.76563 17.4531 7.14584 17.1302C6.78126 16.9479 5.8698 16.8854 3.41667 16.8854C0.593754 16.8854 0.166672 16.849 0.166672 16.6146C0.166672 16.375 0.588547 16.3438 3.63021 16.3958C6.9948 16.4479 7.10417 16.4583 7.69271 16.8854C8.03126 17.125 8.46355 17.5208 8.65625 17.7604C8.85417 18 9.17188 18.349 9.36459 18.5365C10.2552 19.4115 10.3229 19.6563 10.3229 22.026C10.3281 24.4635 10.2083 24.8802 9.3073 25.5521C8.92188 25.8438 8.46875 25.9219 6.80209 26C5.74312 26.0493 5.21864 26.0613 4.75734 26.2381C4.24304 26.4352 3.80726 26.8371 2.79688 27.724L2.00521 28.4167L1.90105 38.9792C1.84896 44.7917 1.83855 50.6927 1.88542 52.0885L1.97396 54.625L4.58855 57.2448C6.74882 59.4081 7.46328 60.2122 8.34745 60.5066C8.98104 60.7175 9.70179 60.6667 11.1042 60.6667C13.7292 60.6667 13.9323 60.6458 14.1406 60.3177C14.276 60.099 14.5469 59.9688 14.8698 59.9688ZM5.85938 52.8177C6.3698 53.4219 6.41667 53.9427 6.01042 54.3958C5.65626 54.7865 5.10417 54.8073 4.58855 54.4427C4.0573 54.0677 4.07813 53.3125 4.63542 52.7865L5.07292 52.375V44.2344L4.58855 43.6615L4.10938 43.0885V30.7969L5.19792 29.6615L6.28646 28.5313L8.52605 28.474C10.6354 28.4219 10.7865 28.3958 11.1667 27.9948C11.9375 27.1771 13.1302 27.6198 13.1302 28.724C13.1302 29.776 11.8802 30.2292 11.2344 29.4063C10.901 28.9844 10.8177 28.9688 8.83334 28.9688C6.47396 28.9688 6.01042 29.151 5.08334 30.4167L4.54688 31.1406V42.7188L4.97917 43.4167C5.40626 44.1094 5.41146 44.1719 5.41667 48.2083L5.42188 52.3021L5.85938 52.8177ZM5.1875 53.1719C5.65105 53.1042 5.95313 53.7917 5.57292 54.0365C5.16667 54.2969 4.8073 54.1198 4.8073 53.6615C4.8073 53.349 4.91667 53.2083 5.1875 53.1719ZM23.3438 51.9427C22.4323 52.7917 21.9271 53.1354 21.5052 53.1875C20.3177 53.3333 18.099 53.3073 17.5052 53.1406C16.9115 52.974 16.1302 52.2969 14.5729 50.625L13.8281 49.8281V48.3542C13.8281 46.7813 13.8906 46.6354 15.1042 45.3594C15.5521 44.8854 15.7083 44.8385 17.0677 44.7656C18.224 44.7031 18.6094 44.6198 18.8385 44.3594C19.2813 43.875 20.2292 43.9219 20.5781 44.4531C21.3542 45.6354 19.6406 46.8125 18.7656 45.6927C18.4583 45.3073 18.2917 45.2604 17.3073 45.2708C15.9115 45.2865 15.7656 45.349 14.9896 46.2813C14.3854 47.0052 14.3542 47.1042 14.3542 48.3385V49.6302L17.3021 52.7031L19.1667 52.7604C20.1927 52.7917 21.2031 52.776 21.4167 52.7188C21.625 52.6615 22.5885 51.8594 23.5469 50.9375C24.5104 50.0156 25.4844 49.1875 25.7083 49.099C25.9271 49.0104 27.901 48.9323 30.0833 48.9323C33.2292 48.9323 34.151 48.875 34.4948 48.6771C35.2532 48.2396 35.4921 48.0743 35.7595 48.0985C35.9217 48.1131 37.2244 48.1562 37.5 48.5C37.7756 48.8438 37.5 49 37.5 49C37.5 49 37.1406 49.5899 36.2604 50.0899C35.1198 50.7461 35.375 50.4688 34.8802 49.8958L34.5 49.4583H26.0885L25.3438 50.1146C24.9375 50.474 24.0365 51.2969 23.3438 51.9427ZM35.151 49.5208C35.2656 49.474 35.5052 49.4688 35.6719 49.5156C35.8438 49.5573 35.75 49.599 35.4583 49.6042C35.1719 49.6042 35.0313 49.5677 35.151 49.5208ZM35.2708 48.9375C35.3177 48.9375 35.401 49.0156 35.4583 49.1094C35.5156 49.2083 35.4844 49.2865 35.3802 49.2865C35.2813 49.2865 35.1979 49.2083 35.1979 49.1094C35.1979 49.0156 35.2292 48.9375 35.2708 48.9375ZM30.3177 39.5208C30.4323 40.1719 30.2865 40.6771 29.974 40.7396C29.8125 40.776 29.4635 40.7708 29.1979 40.7344C28.7552 40.6719 28.7135 40.599 28.7135 39.8958V39.1302H29.4844C30.1406 39.1302 30.2604 39.1823 30.3177 39.5208ZM26.5833 39.8229C26.6198 40.2135 26.5469 40.4948 26.3802 40.6198C26.2344 40.724 25.8333 40.7813 25.4896 40.7396C24.875 40.6667 24.8646 40.651 24.8646 39.8854V39.1094L25.6927 39.1615C26.5052 39.2135 26.526 39.2344 26.5833 39.8229ZM8.02084 39.4531C8.05209 39.6771 8.03126 40.0521 7.97396 40.2865C7.88021 40.6563 7.77084 40.7031 7.00521 40.7031C6.15105 40.7031 6.13542 40.6927 6.02084 40.0781C5.8698 39.2656 6.08855 39.0625 7.13021 39.0521C7.87501 39.0417 7.96875 39.0833 8.02084 39.4531ZM7.8698 35.7865C8.11459 36.2448 8.09896 37.0833 7.83855 37.3438C7.72396 37.4583 7.34375 37.5521 7 37.5521C6.19271 37.5521 5.94792 37.2969 5.94792 36.4635C5.94792 35.901 6.02084 35.7604 6.39584 35.6198C7.10417 35.3542 7.67188 35.4167 7.8698 35.7865ZM37.3698 34.724C37.5625 35.4115 37.1563 36.3438 36.5365 36.6458C35.7083 37.0469 34.8281 36.7656 34.3229 35.9375L33.974 35.3646L30.3385 35.3542C27.6836 35.3488 26.4398 35.3876 25.8544 34.7859C25.3028 34.2191 25.3356 33.0837 25.3229 30.8073L25.3021 27.5781L22.8177 25.1667C21.4479 23.8385 20.2448 22.5313 20.1458 22.2604C20.0365 21.974 19.9583 20.3281 19.9583 18.3542C19.9583 15.6354 19.9063 14.8385 19.6927 14.4271C19.5469 14.1406 19.349 13.9063 19.2604 13.9063C19.1719 13.9063 18.7969 13.5833 18.4323 13.1875C18.0677 12.7865 17.3073 12.0208 16.7396 11.4792C16.1719 10.9375 15.4219 10.1875 15.0729 9.81771C14.8152 9.54325 14.6299 9.33359 14.4087 9.17344C13.6646 8.63459 12.5146 8.65626 6.83334 8.65626C0.776046 8.65626 -0.437496 8.57292 0.447922 8.23438C0.979171 8.03125 13.651 8.11459 14.0573 8.32813C14.4375 8.52084 17.0156 10.9688 18.0938 12.151C18.3958 12.4896 18.9792 13.0781 19.3802 13.4688C19.7865 13.8542 20.2031 14.3906 20.3021 14.6615C20.4063 14.9427 20.4844 16.6354 20.4844 18.5677V21.9792L21.3177 22.8698C21.776 23.3594 22.8021 24.401 23.6042 25.1823C24.6387 26.1948 25.1725 26.6928 25.4483 27.3068C25.7598 28.0003 25.742 28.8417 25.7448 30.7396C25.7473 32.8152 25.7223 33.8739 26.2393 34.4051C26.8017 34.9829 28.0054 34.9365 30.5833 34.8958L34.0052 34.8438L34.25 34.3646C34.4115 34.0521 34.7344 33.8177 35.1771 33.6823C36.1302 33.3958 37.1302 33.875 37.3698 34.724ZM7.3125 32C7.92188 32.0833 8.125 32.4583 7.97917 33.2344C7.85938 33.8646 7.84896 33.875 7.01042 33.875C6.11459 33.875 5.95834 33.6979 5.95313 32.6875C5.94792 32.2292 6.59375 31.9063 7.3125 32ZM37.2083 30.1927C37.5885 30.9323 37.5365 31.3177 36.9635 31.9271C36.6094 32.3073 36.2917 32.474 35.9219 32.474C35.3333 32.474 34.4948 32.1458 34.4948 31.9167C34.4948 31.8385 34.3385 31.6146 34.1458 31.4219C33.8385 31.1146 33.5625 31.0729 31.8958 31.0729C29.7292 31.0729 28.9375 30.8698 28.7031 30.25C28.6146 30.0156 28.5417 28.7969 28.5417 27.5469C28.5417 25.2344 28.3646 24.4531 27.7656 24.1198C27.5104 23.974 25.901 22.4323 24.5208 21.0052C23.7865 20.25 23.7344 20.1302 23.6667 19.0677C23.6302 18.4427 23.5313 17.9375 23.4531 17.9375C23.375 17.9375 23.0729 17.7344 22.776 17.4844C22.0781 16.8958 22.0469 16.0885 22.6875 15.3229C23.0313 14.9167 23.2917 14.7813 23.7292 14.7813C24.7396 14.7813 25.1771 15.0521 25.4063 15.8177C25.6667 16.6979 25.4219 17.375 24.6823 17.7969C24.2396 18.0521 24.1615 18.1979 24.1615 18.8177C24.1615 19.2135 24.2552 19.7083 24.3646 19.9167C24.4792 20.125 25.5417 21.2708 26.7292 22.4688L28.8906 24.6406L28.9115 26.849C28.9219 28.0625 28.9583 29.2813 28.9896 29.5521C29.099 30.4896 29.2604 30.5469 31.7448 30.5469H34.0313L34.5938 29.9323C35.4531 28.9948 36.651 29.1146 37.2083 30.1927ZM12.0729 28.1823C12.526 28.1823 12.724 28.5729 12.5313 29.0781C12.474 29.2344 12.2656 29.3229 12.0365 29.2865C11.724 29.2448 11.6406 29.1198 11.6406 28.7083C11.6406 28.2656 11.7083 28.1823 12.0729 28.1823ZM57.6146 23.276C57.6146 23.5052 57.4792 23.8229 57.3177 23.9844C56.9792 24.3281 55.9896 24.2396 55.5313 23.8229C55.3073 23.6146 54.5885 23.5625 51.9479 23.5469C49.4792 23.5365 48.5313 23.4688 48.1823 23.2865C47.9271 23.151 46.7969 22.0938 45.6771 20.9375C44.5521 19.7813 43.3958 18.7135 43.1042 18.5625C42.651 18.3281 41.7604 18.2865 37.3958 18.2865H32.2292L31.0417 17.2656C30.3906 16.7031 29.7448 16.1094 29.6146 15.9531C29.4792 15.7917 29.1458 15.6615 28.8698 15.6615C28 15.6615 27.3646 14.651 27.8021 13.9635C28.0104 13.6354 28.7708 13.5365 29.2396 13.7813C29.5833 13.9583 29.6823 14.151 29.6979 14.6667C29.7135 15.3385 29.9479 15.6198 31.8802 17.2865C32.5313 17.849 32.8073 17.8698 39.8021 17.9115L43.4375 17.9375L45.6667 20.1146C46.8906 21.3125 48.0833 22.4531 48.3125 22.651C48.7083 22.9896 48.9479 23.0156 51.9792 23.0156C54.9323 23.0156 55.2604 22.9844 55.5885 22.6823C56.3906 21.9375 57.6146 22.2969 57.6146 23.276ZM41.9948 21.5885C42.026 21.9115 42.0052 22.2865 41.9531 22.4271C41.8802 22.6146 41.625 22.6719 41.0208 22.6302C40.2969 22.5833 40.1771 22.5208 40.1302 22.1667C40.099 21.9375 40.1198 21.5625 40.1771 21.3229C40.276 20.9323 40.3594 20.901 41.1146 20.9479C41.9063 21 41.9427 21.0208 41.9948 21.5885ZM36.599 21.6719C36.599 22.0885 36.5469 22.4844 36.4792 22.5469C36.4167 22.6146 36.0625 22.6667 35.6927 22.6667H35.0208V20.9115H36.599V21.6719ZM51.5938 17.5C51.9427 17.974 51.8854 18.7604 51.4844 19.1615C51.0625 19.5833 50.4792 19.6094 49.9479 19.2396C49.6563 19.0365 49.5573 18.7917 49.5573 18.2865C49.5573 17.6771 49.4167 17.4635 48.1979 16.1927L46.8333 14.7813H40.6198C35.7444 14.7778 34.3117 14.8206 33.2623 14.2074C32.7377 13.9009 32.3089 13.4305 31.5938 12.7083L30.1771 11.2813H23.8594L23.2656 10.7917C22.0104 9.75001 18.349 5.96355 18.1875 5.53646C17.9844 5.01042 18.0313 2.17188 18.2396 2.17188C18.3177 2.17188 18.3906 2.54688 18.401 3.00521C18.4479 5.33334 18.5677 5.59896 20.2031 7.07813C20.7917 7.60938 21.4688 8.27605 21.7083 8.5573C21.9531 8.84375 22.4219 9.34375 22.7604 9.67188C23.9635 10.8385 23.9688 10.8385 26.8125 10.7865C30.3073 10.724 30.5729 10.8073 32.2135 12.5104C32.9375 13.2656 33.7552 13.9688 34.026 14.0729C34.3385 14.1927 36.7031 14.2604 40.5938 14.2604C45.6082 14.2604 46.7621 14.2322 47.5238 14.7648C47.7962 14.9552 48.0184 15.2174 48.349 15.5781C49.75 17.1094 49.9271 17.2344 50.6719 17.2031C51.1615 17.1823 51.4271 17.2708 51.5938 17.5ZM50.849 17.6875C51.125 17.7969 51.25 18.6354 51.026 18.8594C50.8281 19.0573 50.1719 18.6823 50.1198 18.3385C50.0521 17.9115 50.4635 17.5417 50.849 17.6875ZM6.40625 14.2135C6.48959 14.5156 6.41667 14.6406 6.09896 14.7708C5.8698 14.8646 5.67188 14.9427 5.65105 14.9479C5.63542 14.9531 5.41146 14.8802 5.16146 14.7865C4.76042 14.6302 4.70834 14.526 4.75521 13.9531C4.8073 13.3125 4.83334 13.2917 5.55209 13.2396C6.17188 13.1979 6.29688 13.2396 6.30209 13.5052C6.30209 13.6771 6.34896 13.9948 6.40625 14.2135ZM3.39063 13.7656C3.48438 14.2292 3.4323 14.4063 3.15105 14.6354C2.90105 14.8438 2.65105 14.8906 2.31251 14.8021C1.89063 14.6875 1.83334 14.5833 1.83334 13.9844C1.83334 13.3021 1.83855 13.2969 2.55209 13.2448C3.2448 13.1927 3.28126 13.2135 3.39063 13.7656ZM58 11C57.7572 11.215 57.6465 11.5 57.5 11.5C56.7813 11.9948 55.9115 11.7188 55.2292 11.0365C54.6094 10.4167 54.5208 10.0104 54.7917 9.06771C54.9375 8.56771 54.8906 8.45834 54.3125 7.90105C54.0469 7.64729 53.8566 7.44836 53.6359 7.29244C52.7875 6.69309 51.4902 6.72917 43.7448 6.72917C34.9375 6.73438 34.9323 6.73438 34.2917 7.12501C33.9375 7.33855 33.3594 7.7448 33.0052 8.03126C32.3703 8.54123 32.3542 8.54167 29.5126 8.61959L29.5052 8.6198C27.9323 8.66146 26.3802 8.65105 26.0573 8.58855C25.625 8.50521 25.0104 8.03646 23.776 6.83334C21.9271 5.03646 21.8125 4.79167 21.9271 3.05209L21.9948 2.08855L22.026 3.23959L22.0625 4.39063L23.8177 6.13021C24.7813 7.08334 25.7083 7.91667 25.875 7.98438C26.0417 8.05209 27.526 8.10938 29.1719 8.11459C32.0417 8.13021 32.1875 8.11459 32.5938 7.73438C32.8333 7.51563 33.3385 7.10417 33.7188 6.81771L34.4063 6.29167L43.3385 6.23959C48.25 6.20834 52.526 6.23438 52.8385 6.29167C53.1563 6.34896 53.8646 6.77084 54.4167 7.22917C55.3229 7.97917 55.4948 8.0573 56.1458 7.98959C56.9531 7.91146 57.4707 8.59896 57.7572 9.13021C58.002 9.58855 58 10.7344 58 11ZM56.3698 8.51042C57.8906 8.36459 58.3438 10.4531 56.9115 10.9844C56.3906 11.1719 56.0469 11.099 55.6927 10.724C55.1615 10.151 55.099 9.75521 55.4635 9.13021C55.7083 8.70313 55.9323 8.55209 56.3698 8.51042ZM15.5469 4.18751C16.026 4.79167 16.0365 5.39584 15.5781 5.85417C15.3814 6.05091 15.2885 6.14992 15.1787 6.17489C15.0618 6.20148 14.9258 6.14407 14.625 6.03126C14.375 5.9323 14.1042 5.67709 14.026 5.46355C13.8385 4.95834 14.1146 4.15105 14.5469 3.91667C14.7969 3.78125 14.8802 3.54688 14.8802 2.95834C14.8802 2.52605 14.9635 2.17188 15.0625 2.17188C15.1667 2.17188 15.2292 2.50001 15.2083 2.93751C15.1771 3.50001 15.2708 3.83334 15.5469 4.18751ZM11.6927 4.01042C12.2344 4.69792 12.2708 5.59896 11.7708 5.98438C11.3646 6.29688 10.974 6.25521 10.5365 5.84376C10.026 5.37501 10.0469 4.71355 10.5885 4.17188C10.9271 3.83855 11.026 3.55209 11.026 2.95313C11.026 2.51563 11.1094 2.17188 11.2135 2.17188C11.3281 2.17188 11.3854 2.45313 11.3542 2.84376C11.3229 3.32813 11.4167 3.65626 11.6927 4.01042ZM7.95834 4.12501C8.46875 4.73438 8.52605 5.42188 8.10938 5.88021C7.72917 6.30209 7.08334 6.29167 6.65105 5.85417C6.17188 5.37501 6.20834 4.69792 6.73438 4.17188C7.07292 3.83855 7.17188 3.55209 7.17188 2.95313C7.17188 2.34896 7.23959 2.17188 7.45834 2.17188C7.69271 2.17188 7.72396 2.29688 7.63021 2.89063C7.53126 3.4948 7.58334 3.6823 7.95834 4.12501ZM4.28646 4.17188C4.8125 4.69792 4.84896 5.37501 4.3698 5.85417C3.92188 6.29688 3.48959 6.29688 2.90626 5.83855C2.31771 5.37501 2.31251 4.73438 2.88542 4.20313C3.22917 3.88542 3.32292 3.62501 3.32292 2.98438C3.32292 2.38021 3.39063 2.17188 3.58334 2.17188C3.77605 2.17188 3.84896 2.38021 3.84896 2.95313C3.84896 3.55209 3.94792 3.83855 4.28646 4.17188ZM48.6875 3.59376C48.9427 4.06251 48.7708 4.75001 48.375 4.85938C47.9479 4.97396 47.224 4.81251 47.0677 4.56771C46.9063 4.31771 46.8958 3.87501 47.0365 3.50001C47.2031 3.06251 48.4427 3.13021 48.6875 3.59376ZM42.5521 3.98959C42.5521 4.58855 42.4792 4.79688 42.2448 4.85417C41.3646 5.08334 40.9271 4.75521 41.0052 3.91667C41.0625 3.34375 41.099 3.3073 41.8073 3.26042L42.5521 3.20313V3.98959ZM36.5677 3.9948C36.599 4.42188 36.5365 4.73438 36.3906 4.82292C36.1146 5.00001 35.6823 5.01563 35.2969 4.8698C35.1042 4.79688 35.0208 4.53125 35.0208 3.98438V3.20313L35.7656 3.26042C36.4948 3.31251 36.5104 3.32813 36.5677 3.9948Z" fill="white"/>
<path d="M8.28125 54.0729C8.4948 53.8646 8.40625 53.3594 8.1198 53.1198C7.875 52.9219 7.78646 52.9479 7.5 53.2969C7.2448 53.6146 7.21355 53.7656 7.3698 53.9479C7.57813 54.2031 8.08334 54.2708 8.28125 54.0729Z" fill="white"/>
<path fill-rule="evenodd" clip-rule="evenodd" d="M8.65105 54.3229C9.01563 53.8073 8.9948 53.4531 8.57292 52.9167C8.2448 52.5 8.22396 52.2031 8.22396 48.2552V44.0417L9.29688 42.901C9.88542 42.2708 10.8438 41.3385 11.4271 40.8333L12.4896 39.9167L14.2031 39.8229C16.0938 39.724 16.5469 39.5156 17.2969 38.4167C17.6927 37.8333 17.6979 37.7917 17.6458 32.8698L17.5938 27.9115L16.5 26.9063C15.5781 26.0625 15.4063 25.8125 15.4063 25.3229C15.4063 24.4375 15.1302 24.0677 14.4792 24.0677C13.526 24.0729 13.0521 24.6667 13.3385 25.4844C13.5052 25.9635 14.3073 26.3229 14.6875 26.0885C14.9167 25.9479 17.1563 28.1875 17.1667 28.5729C17.1719 28.7396 17.1667 30.8438 17.1563 33.2448C17.1354 37.9948 17.0885 38.25 16.125 38.9375C15.6979 39.2448 15.3542 39.3021 14.0208 39.3021C12.4375 39.3021 12.4271 39.3073 11.6823 39.9479C10.1719 41.2656 8.70834 42.7396 8.20834 43.4479L7.69792 44.1823V52.474L7.26042 52.8177C6.69792 53.2656 6.67188 54.0625 7.21355 54.4427C7.76042 54.8281 8.33334 54.7813 8.65105 54.3229ZM8.1198 53.1198C8.40625 53.3594 8.4948 53.8646 8.28125 54.0729C8.08334 54.2708 7.57813 54.2031 7.3698 53.9479C7.21355 53.7656 7.2448 53.6146 7.5 53.2969C7.78646 52.9479 7.875 52.9219 8.1198 53.1198Z" fill="white"/>
<path d="M5.57292 54.0365C5.95313 53.7917 5.65105 53.1042 5.1875 53.1719C4.91667 53.2083 4.8073 53.349 4.8073 53.6615C4.8073 54.1198 5.16667 54.2969 5.57292 54.0365Z" fill="white"/>
<path d="M12.5313 29.0781C12.724 28.5729 12.526 28.1823 12.0729 28.1823C11.7083 28.1823 11.6406 28.2656 11.6406 28.7083C11.6406 29.1198 11.724 29.2448 12.0365 29.2865C12.2656 29.3229 12.474 29.2344 12.5313 29.0781Z" fill="white"/>
<path d="M51.026 18.8594C51.25 18.6354 51.125 17.7969 50.849 17.6875C50.4635 17.5417 50.0521 17.9115 50.1198 18.3385C50.1719 18.6823 50.8281 19.0573 51.026 18.8594Z" fill="white"/>
<path d="M56.9115 10.9844C58.3438 10.4531 57.8906 8.36459 56.3698 8.51042C55.9323 8.55209 55.7083 8.70313 55.4635 9.13021C55.099 9.75521 55.1615 10.151 55.6927 10.724C56.0469 11.099 56.3906 11.1719 56.9115 10.9844Z" fill="white"/>
<path d="M35.4583 49.1094C35.401 49.0156 35.3177 48.9375 35.2708 48.9375C35.2292 48.9375 35.1979 49.0156 35.1979 49.1094C35.1979 49.2083 35.2813 49.2865 35.3802 49.2865C35.4844 49.2865 35.5156 49.2083 35.4583 49.1094Z" fill="white"/>
<path d="M35.6719 49.5156C35.5052 49.4688 35.2656 49.474 35.151 49.5208C35.0313 49.5677 35.1719 49.6042 35.4583 49.6042C35.75 49.599 35.8438 49.5573 35.6719 49.5156Z" fill="white"/>
</g>
</g>
</svg>
