<svg width="80" height="80" viewBox="0 0 80 80" fill="none" xmlns="http://www.w3.org/2000/svg">
<path d="M41 56.6666C45.6112 56.6666 49.5417 55.0417 52.7917 51.7916C56.0417 48.5416 57.6667 44.6111 57.6667 40C57.6667 35.3888 56.0417 31.4583 52.7917 28.2083C49.5417 24.9583 45.6112 23.3333 41 23.3333C39.7778 23.3333 38.5834 23.4583 37.4167 23.7083C36.2501 23.9583 35.1111 24.3333 34 24.8333C37 26.2222 39.3751 28.2778 41.125 31C42.875 33.7222 43.75 36.7222 43.75 40C43.75 43.2778 42.875 46.2778 41.125 49C39.3751 51.7222 37 53.7777 34 55.1667C35.1111 55.6666 36.2501 56.0417 37.4167 56.2916C38.5834 56.5416 39.7778 56.6666 41 56.6666ZM40 77.6666L28.8334 66.6666H13.3334V51.1667L2.33337 40L13.3334 28.8333V13.3333H28.8334L40 2.33331L51.1667 13.3333H66.6667V28.8333L77.6667 40L66.6667 51.1667V66.6666H51.1667L40 77.6666ZM40 68.3333L48.3334 60H60V48.3333L68.3334 40L60 31.6666V20H48.3334L40 11.6666L31.6667 20H20V31.6666L11.6667 40L20 48.3333V60H31.6667L40 68.3333Z" fill="#FEFBE2"/>
</svg>
