<svg width="80" height="82" viewBox="0 0 80 82" fill="none" xmlns="http://www.w3.org/2000/svg">
<path d="M37.9661 74.0937L27.2466 63.5386H12.3673V48.6654L1.80786 37.9504L12.3673 27.2354V12.3623H27.2466L37.9661 1.80716L48.6855 12.3623H63.5648V27.2354L74.1242 37.9504L63.5648 48.6654V63.5386H48.6855L37.9661 74.0937ZM37.9661 53.943C42.3925 53.943 46.1656 52.3837 49.2855 49.2652C52.4053 46.1466 53.9653 42.375 53.9653 37.9504C53.9653 33.5258 52.4053 29.7542 49.2855 26.6357C46.1656 23.5171 42.3925 21.9578 37.9661 21.9578C33.5396 21.9578 29.7665 23.5171 26.6466 26.6357C23.5268 29.7542 21.9669 33.5258 21.9669 37.9504C21.9669 42.375 23.5268 46.1466 26.6466 49.2652C29.7665 52.3837 33.5396 53.943 37.9661 53.943ZM37.9661 47.546C35.2995 47.546 33.033 46.6131 31.1664 44.7473C29.2998 42.8815 28.3665 40.6158 28.3665 37.9504C28.3665 35.285 29.2998 33.0194 31.1664 31.1536C33.033 29.2878 35.2995 28.3549 37.9661 28.3549C40.6326 28.3549 42.8991 29.2878 44.7657 31.1536C46.6323 33.0194 47.5656 35.285 47.5656 37.9504C47.5656 40.6158 46.6323 42.8815 44.7657 44.7473C42.8991 46.6131 40.6326 47.546 37.9661 47.546ZM37.9661 65.1378L45.9657 57.1415H57.1651V45.9467L65.1647 37.9504L57.1651 29.9541V18.7593H45.9657L37.9661 10.763L29.9665 18.7593H18.767V29.9541L10.7674 37.9504L18.767 45.9467V57.1415H29.9665L37.9661 65.1378Z" fill="#1F1F1F"/>
</svg>
