<svg width="46" height="46" viewBox="0 0 46 46" fill="none" xmlns="http://www.w3.org/2000/svg">
<path d="M10.1042 26.7708H26.7708V22.6042H10.1042V26.7708ZM10.1042 20.5208H35.1042V16.3542H10.1042V20.5208ZM10.1042 14.2708H35.1042V10.1042H10.1042V14.2708ZM0 45.2083V6.5625C0 4.72222 0.633681 3.1684 1.90104 1.90104C3.1684 0.633681 4.72222 0 6.5625 0H38.6458C40.4861 0 42.0399 0.633681 43.3073 1.90104C44.5747 3.1684 45.2083 4.72222 45.2083 6.5625V30.3125C45.2083 32.1528 44.5747 33.7066 43.3073 34.974C42.0399 36.2413 40.4861 36.875 38.6458 36.875H8.33333L0 45.2083ZM6.5625 30.3125H38.6458V6.5625H6.5625V30.3125Z" fill="#FEFADC"/>
<path fill-rule="evenodd" clip-rule="evenodd" d="M6.5625 30.3125H38.6458V6.5625H6.5625V30.3125ZM26.7708 26.7708H10.1042V22.6042H26.7708V26.7708ZM35.1042 20.5208H10.1042V16.3542H35.1042V20.5208ZM35.1042 14.2708H10.1042V10.1042H35.1042V14.2708Z" fill="#FEFADC"/>
</svg>
