<svg width="50" height="50" viewBox="0 0 50 50" fill="none" xmlns="http://www.w3.org/2000/svg">
<path d="M1.66685 0.218746C1.04178 0.499996 0.552144 0.989582 0.250027 1.61458L0 2.13541V24.8958C0 40.2604 0.0312534 47.7812 0.104178 48.0416C0.270863 48.6354 0.833424 49.2916 1.45849 49.6354L2.03147 49.9479L14.3557 49.9791L26.6696 50V40.3125V30.625H23.4401H20.2105V26.8229V23.0208H23.4401H26.6696V19.9166C26.6696 15.5312 26.8675 14.25 27.8051 12.3437C29.2844 9.36457 31.9097 7.79166 35.8164 7.54166C36.7748 7.47916 40.9628 7.64582 41.8066 7.78124L42.1921 7.84374V11.2083V14.5729L39.5147 14.6042C37.2853 14.6458 36.7436 14.6771 36.3477 14.8333C35.6081 15.1042 35.0559 15.6354 34.785 16.3333C34.5559 16.8958 34.5454 17.0937 34.5038 19.9687L34.4621 23.0208H38.2229C40.2961 23.0208 41.9837 23.0521 41.9837 23.1041C41.9837 23.1458 41.7754 24.7916 41.5149 26.7708C41.2545 28.75 41.0461 30.4271 41.0461 30.4896C41.0461 30.5937 40.3169 30.625 37.7645 30.625H34.4829V40.3125V50H40.9732C48.4845 50 48.2344 50.0208 49.1408 49.125C50.0888 48.177 50.0159 50.5 49.9846 24.7396L49.9534 2.03125L49.6408 1.45833C49.2971 0.833332 48.6407 0.270832 48.0469 0.104164C47.7865 0.0312462 40.2648 -3.8147e-06 24.8986 -3.8147e-06C2.22941 -3.8147e-06 2.13565 0.0104141 1.66685 0.218746Z" fill="#FEFADC"/>
</svg>
