<svg width="46" height="37" viewBox="0 0 46 37" fill="none" xmlns="http://www.w3.org/2000/svg">
<path d="M6.5625 36.875C4.72222 36.875 3.1684 36.2413 1.90104 34.974C0.633681 33.7066 0 32.1528 0 30.3125V6.5625C0 4.72222 0.633681 3.1684 1.90104 1.90104C3.1684 0.633681 4.72222 0 6.5625 0H38.6458C40.4861 0 42.0399 0.633681 43.3073 1.90104C44.5747 3.1684 45.2083 4.72222 45.2083 6.5625V30.3125C45.2083 32.1528 44.5747 33.7066 43.3073 34.974C42.0399 36.2413 40.4861 36.875 38.6458 36.875H6.5625ZM22.6042 22.7604L6.5625 12.3438V30.3125H38.6458V12.3438L22.6042 22.7604ZM22.6042 16.9792L38.6458 6.5625H6.5625L22.6042 16.9792ZM6.5625 12.3438V6.5625V30.3125V12.3438Z" fill="#FEFADC"/>
</svg>
