<svg width="50" height="50" viewBox="0 0 50 50" fill="none" xmlns="http://www.w3.org/2000/svg">
<path d="M15.6572 0.0532722C12.4258 0.190113 10.2129 0.600636 8.3426 1.40213C6.58984 2.15475 5.5519 2.84872 4.25936 4.12916C2.5164 5.85921 1.4295 7.8043 0.744064 10.414C0.136965 12.7208 -0.00012207 15.3696 -0.00012207 24.9778C-0.00012207 34.4295 0.127173 37.1077 0.695104 39.4144C2.10514 45.1519 6.31567 48.8075 12.514 49.6579C14.2863 49.8925 18.0072 50 25.1162 50C31.7257 50 35.5348 49.9023 37.2483 49.697C40.7539 49.2865 43.4956 48.0745 45.6596 46.0023C48.0978 43.6565 49.3903 40.8512 49.8603 36.8536C50.0464 35.2897 50.0464 14.4313 49.8603 12.9554C49.4785 9.96442 48.5874 7.5013 47.1774 5.61486C46.4821 4.67652 44.9938 3.25925 44.0635 2.62392C41.9583 1.20664 39.4222 0.424698 36.0831 0.141243C34.5066 0.0141754 18.3304 -0.054245 15.6572 0.0532722ZM36.8371 4.77427C39.6278 5.18479 41.1945 5.87876 42.7024 7.37423C43.6816 8.35166 44.2202 9.2118 44.7 10.5411C45.5029 12.7892 45.5813 13.9817 45.5813 25.0266C45.5813 31.3897 45.5421 34.4491 45.454 35.4754C45.17 38.8671 44.4944 40.6949 42.9081 42.3858C41.2532 44.1452 39.1871 45.0151 35.9852 45.3083C34.252 45.4745 19.9264 45.5527 16.6266 45.4158C15.1382 45.3572 13.5813 45.2595 13.1602 45.2008C11.3095 44.9467 9.51763 44.2918 8.40135 43.4805C7.70612 42.9625 6.58984 41.7505 6.17858 41.0663C5.35606 39.6979 4.86646 37.7723 4.7 35.3288C4.40624 30.8912 4.50416 15.6628 4.83709 13.1411C5.1896 10.5313 6.00233 8.77196 7.53966 7.28626C9.22387 5.65395 11.4368 4.86223 14.864 4.6472C15.6082 4.6081 20.6119 4.57878 25.9974 4.59833C34.3499 4.61788 35.946 4.63742 36.8371 4.77427Z" fill="#FEFADC"/>
<path d="M36.0489 9.66834C34.9424 10.2255 34.4136 11.0856 34.4136 12.3563C34.4136 13.2751 34.6291 13.8224 35.2557 14.448C35.8824 15.0638 36.4308 15.2886 37.3512 15.2886C38.0073 15.2886 38.2227 15.2495 38.6927 15.0149C39.6817 14.5262 40.2398 13.6758 40.3182 12.542C40.3867 11.5352 40.1615 10.9488 39.4663 10.245C38.82 9.59993 38.2521 9.37512 37.3023 9.37512C36.7735 9.37512 36.5385 9.43376 36.0489 9.66834Z" fill="#FEFADC"/>
<path d="M21.6941 13.0503C19.1188 13.5194 16.8373 14.7217 14.9181 16.6472C12.3722 19.1788 11.1482 22.1404 11.1482 25.6982C11.1482 27.8486 11.5497 29.6177 12.4407 31.3966C15.1825 36.8312 21.2143 39.6168 27.0796 38.1605C29.3905 37.5838 31.1727 36.5868 32.9058 34.9154C34.4628 33.4102 35.5105 31.7681 36.1666 29.8034C36.6366 28.3862 36.8128 27.2914 36.8128 25.6982C36.8128 24.1148 36.6366 23.0103 36.1763 21.6223C35.5497 19.7457 34.639 18.26 33.2192 16.7938C31.2804 14.7999 28.8618 13.5097 26.1984 13.0405C25.1115 12.8548 22.7516 12.8548 21.6941 13.0503ZM25.5717 17.5269C30.0564 18.387 33.0331 22.7855 32.1714 27.2914C31.6427 30.0185 29.6353 32.4425 27.0699 33.4297C25.8165 33.9184 25.0919 34.0357 23.6427 33.9771C22.6145 33.938 22.2131 33.8793 21.5374 33.6643C18.5705 32.726 16.4065 30.3312 15.7994 27.3208C15.5644 26.1576 15.6525 24.3494 16.005 23.2546C16.9254 20.3419 19.3832 18.1231 22.311 17.5367C23.1825 17.3607 24.6904 17.3607 25.5717 17.5269Z" fill="#FEFADC"/>
</svg>
