<svg width="50" height="50" viewBox="0 0 50 50" fill="none" xmlns="http://www.w3.org/2000/svg">
<path d="M26.2835 17.7137C26.2279 37.6759 26.2946 36.0922 25.3491 37.7834C24.5148 39.2791 23.2578 40.3837 21.578 41.1169C20.1653 41.723 19.3977 41.8794 17.7959 41.8794C16.2385 41.8794 15.4487 41.723 14.1249 41.156C12.4452 40.4228 11.0881 39.24 10.2871 37.7834C9.64193 36.6005 9.46395 35.926 9.46395 34.5574C9.45282 33.1399 9.63081 32.4849 10.365 31.1847C10.7988 30.4027 11.0324 30.1192 11.889 29.3762C12.9903 28.4084 14.0026 27.8707 15.4598 27.4699C16.5277 27.1767 18.2964 27.1082 19.4089 27.3135C19.8649 27.4015 20.3099 27.4699 20.3878 27.4699C20.4879 27.4699 20.5213 26.5803 20.5213 23.3739V19.2681L19.9984 19.1899C19.6981 19.1508 18.6635 19.1214 17.6846 19.1214C14.8257 19.1312 12.5676 19.5809 10.098 20.6269C0.3311 24.7523 -2.98387 35.2026 2.9675 43.0916C4.00204 44.4602 6.22685 46.4252 7.7286 47.305C12.3785 50.0129 17.9739 50.7167 23.3023 49.2504C28.0745 47.9404 32.335 44.5091 34.2595 40.4424C34.7489 39.3866 35.1271 38.2233 35.383 37.0013C35.561 36.102 35.5721 35.2612 35.5499 26.2186C35.5276 20.8322 35.5499 16.4233 35.5944 16.4233C35.6388 16.4233 35.8613 16.5504 36.0838 16.7068C37.3297 17.5769 39.866 18.7597 41.7905 19.3951C43.9596 20.099 47.0299 20.6269 48.9988 20.6269H50L49.9778 16.5895L49.9444 12.5619L48.8653 12.5032C45.4614 12.3077 42.3578 11.0564 39.8104 8.84708C37.3186 6.69641 35.8613 3.93964 35.5832 0.850494L35.5054 0H30.9222H26.328L26.2835 17.7137Z" fill="#FEFADC"/>
</svg>
