<svg width="50" height="50" viewBox="0 0 50 50" fill="none" xmlns="http://www.w3.org/2000/svg">
<path d="M22.1257 0.146473C10.5697 1.56519 1.48033 10.7868 0.283804 22.3034C0.105374 24.0038 0.210333 27.2376 0.504216 28.8754C0.955538 31.452 1.71124 33.7261 2.88677 36.0524L3.47454 37.2207L1.72173 43.5945C0.756117 47.11 -0.020576 49.9891 0.000415707 49.9996C0.0214074 50.0204 2.96024 49.2589 6.53933 48.3201C11.7453 46.9535 13.0992 46.6301 13.3091 46.7136C13.4561 46.7658 14.1383 47.0683 14.831 47.3812C17.0772 48.3931 19.4387 49.0607 21.9262 49.3945C23.6581 49.624 26.6913 49.624 28.3707 49.3945C33.8915 48.6226 38.8141 46.2024 42.6975 42.3427C44.7337 40.3294 46.0877 38.483 47.3682 35.9689C48.5227 33.7053 49.3414 31.2329 49.8032 28.625C50.0656 27.102 50.0656 22.6059 49.8032 21.0099C49.3519 18.3081 48.6487 16.1487 47.4626 13.7598C44.0725 6.96881 37.8169 2.1285 30.3334 0.511581C28.0033 0.0108604 24.5292 -0.145615 22.1257 0.146473ZM28.6856 4.4652C31.6979 5.01808 34.1959 6.01952 36.6624 7.6573C40.8817 10.4634 43.978 14.8134 45.206 19.6329C46.1087 23.1797 46.0352 27.2063 45.0171 30.6175C43.3588 36.1254 39.4228 40.7675 34.2589 43.2711C31.257 44.7316 28.4861 45.3679 25.117 45.3679C21.2545 45.3679 17.8434 44.4395 14.3482 42.4366L13.7605 42.1028L9.898 43.1147C7.77784 43.6675 6.01453 44.1057 6.00404 44.0848C5.98305 44.0639 6.41338 42.4157 6.96966 40.4128C7.51544 38.41 7.97726 36.6992 7.97726 36.6157C7.98775 36.5218 7.71486 36.0002 7.37899 35.4578C2.42496 27.4462 3.72644 16.8894 10.4753 10.2131C13.8339 6.89579 18.0953 4.85117 22.8604 4.26699C24.1514 4.11052 27.3631 4.22527 28.6856 4.4652Z" fill="#FEFADC"/>
<path d="M15.3138 13.572C14.7155 13.8641 13.603 15.168 13.1412 16.1277C12.228 18.0055 12.249 20.3839 13.1936 22.5745C14.3482 25.2764 17.3815 29.1152 20.3728 31.6606C22.472 33.4444 24.2248 34.498 26.7962 35.4994C29.4307 36.5217 29.9345 36.6365 31.6768 36.6365C33.0518 36.6365 33.2722 36.6156 33.9019 36.3757C34.9515 35.9793 35.7387 35.489 36.5154 34.7275C37.1242 34.1329 37.2501 33.9451 37.4495 33.3192C37.6909 32.5264 37.8379 31.2641 37.7224 30.826C37.6699 30.5965 37.3656 30.4087 35.8752 29.6681C33.1462 28.312 32.0442 27.8425 31.5824 27.8425C31.194 27.8425 31.131 27.8843 30.6692 28.4893C29.6091 29.8767 28.633 30.9512 28.3811 31.0138C28.0767 31.0868 27.4785 30.8677 26.1035 30.1793C23.8679 29.0735 22.0521 27.5818 20.4882 25.5893C19.6381 24.5044 18.8719 23.2735 18.8719 22.9814C18.8719 22.8666 19.2707 22.2512 19.7535 21.6253C20.6982 20.4047 20.9711 19.9457 20.9711 19.6015C20.9711 19.4868 20.7611 18.913 20.5197 18.3184C20.2678 17.7342 19.764 16.5242 19.3967 15.6375C18.9349 14.5317 18.62 13.9162 18.3891 13.6763L18.0532 13.3425H16.9197C15.9645 13.3425 15.7021 13.3842 15.3138 13.572Z" fill="#FEFADC"/>
</svg>
