<svg width="57" height="55" viewBox="0 0 57 55" fill="none" xmlns="http://www.w3.org/2000/svg">
<path d="M25.175 38.0417L41.9187 21.8854L38.5937 18.6771L25.175 31.625L18.4062 25.0937L15.0812 28.3021L25.175 38.0417ZM28.5 50.4166C25.2146 50.4166 22.1271 49.8151 19.2375 48.612C16.3479 47.4088 13.8344 45.776 11.6969 43.7135C9.55937 41.651 7.86719 39.2257 6.62031 36.4375C5.37344 33.6493 4.75 30.6701 4.75 27.5C4.75 24.3298 5.37344 21.3507 6.62031 18.5625C7.86719 15.7743 9.55937 13.349 11.6969 11.2865C13.8344 9.22395 16.3479 7.59114 19.2375 6.38802C22.1271 5.18489 25.2146 4.58333 28.5 4.58333C31.7854 4.58333 34.8729 5.18489 37.7625 6.38802C40.6521 7.59114 43.1656 9.22395 45.3031 11.2865C47.4406 13.349 49.1328 15.7743 50.3797 18.5625C51.6265 21.3507 52.25 24.3298 52.25 27.5C52.25 30.6701 51.6265 33.6493 50.3797 36.4375C49.1328 39.2257 47.4406 41.651 45.3031 43.7135C43.1656 45.776 40.6521 47.4088 37.7625 48.612C34.8729 49.8151 31.7854 50.4166 28.5 50.4166ZM28.5 45.8333C33.8042 45.8333 38.2969 44.0573 41.9781 40.5052C45.6594 36.9531 47.5 32.618 47.5 27.5C47.5 22.3819 45.6594 18.0469 41.9781 14.4948C38.2969 10.9427 33.8042 9.16666 28.5 9.16666C23.1958 9.16666 18.7031 10.9427 15.0219 14.4948C11.3406 18.0469 9.5 22.3819 9.5 27.5C9.5 32.618 11.3406 36.9531 15.0219 40.5052C18.7031 44.0573 23.1958 45.8333 28.5 45.8333Z" fill="#FE7F2D"/>
</svg>
