<svg width="320" height="49" viewBox="0 0 320 49" fill="none" xmlns="http://www.w3.org/2000/svg">
<path d="M29.3 0L35.8783 16.9291L57.166 16.9291L39.9438 27.3918L46.5221 44.3209L29.3 33.8582L12.0779 44.3209L18.6562 27.3918L1.43404 16.9291L22.7217 16.9291L29.3 0Z" fill="#FE7F2D"/>
<path d="M94.4111 0L100.989 16.9291L122.277 16.9291L105.055 27.3918L111.633 44.3209L94.4111 33.8582L77.189 44.3209L83.7672 27.3918L66.5451 16.9291L87.8328 16.9291L94.4111 0Z" fill="#FE7F2D"/>
<path d="M159.522 0L166.1 16.9291L187.388 16.9291L170.166 27.3918L176.744 44.3209L159.522 33.8582L142.3 44.3209L148.878 27.3918L131.656 16.9291L152.944 16.9291L159.522 0Z" fill="#FE7F2D"/>
<path d="M224.633 0L231.212 16.9291L252.499 16.9291L235.277 27.3918L241.855 44.3209L224.633 33.8582L207.411 44.3209L213.989 27.3918L196.767 16.9291L218.055 16.9291L224.633 0Z" fill="#FE7F2D"/>
<path d="M289.744 0L296.323 16.9291L317.61 16.9291L300.388 27.3918L306.966 44.3209L289.744 33.8582L272.522 44.3209L279.1 27.3918L261.878 16.9291L283.166 16.9291L289.744 0Z" fill="#1D1A05"/>
</svg>
