<svg width="119" height="103" viewBox="0 0 119 103" fill="none" xmlns="http://www.w3.org/2000/svg">
<path d="M92.0165 8.96137L91.9457 35.1431L87.2028 35.1303L87.2612 13.5636L87.1077 13.5632L80.9736 17.4585L80.9854 13.1119L87.5038 8.94915L92.0165 8.96137ZM98.5934 35.1611L98.6026 31.735L107.716 22.8491C108.588 21.9736 109.314 21.1957 109.896 20.5155C110.477 19.8352 110.914 19.1759 111.205 18.5375C111.497 17.8991 111.643 17.2176 111.645 16.4932C111.648 15.6665 111.462 14.9586 111.089 14.3695C110.715 13.7719 110.201 13.3103 109.545 12.9847C108.89 12.659 108.145 12.4951 107.31 12.4928C106.449 12.4905 105.694 12.6674 105.045 13.0236C104.397 13.3713 103.892 13.8685 103.533 14.5153C103.182 15.1621 103.005 15.9329 103.002 16.8278L98.4896 16.8156C98.4941 15.1536 98.8773 13.7101 99.6391 12.4849C100.401 11.2596 101.448 10.3122 102.779 9.64249C104.119 8.97282 105.654 8.64032 107.384 8.645C109.14 8.64976 110.681 8.98205 112.009 9.6419C113.337 10.3017 114.366 11.2037 115.096 12.3477C115.834 13.4918 116.201 14.7967 116.197 16.2626C116.194 17.2427 116.004 18.2053 115.627 19.1503C115.249 20.0953 114.586 21.1418 113.637 22.2898C112.696 23.4378 111.376 24.8277 109.675 26.4595L105.15 31.0368L105.15 31.2157L116.553 31.2466L116.542 35.2097L98.5934 35.1611Z" fill="#1D1A05"/>
<path d="M68.5674 63.8979L68.4965 90.0796L63.7536 90.0668L63.812 68.5001L63.6586 68.4997L57.5245 72.395L57.5362 68.0485L64.0546 63.8857L68.5674 63.8979ZM84.5395 90.481C82.6986 90.476 81.0631 90.1563 79.633 89.5217C78.2114 88.8872 77.0888 88.0063 76.2652 86.879C75.4415 85.7518 75.0061 84.4509 74.959 82.9764L79.7658 82.9894C79.8065 83.6969 80.0392 84.3154 80.4639 84.845C80.8886 85.366 81.4543 85.7724 82.1609 86.064C82.8675 86.3557 83.6597 86.5028 84.5375 86.5051C85.475 86.5077 86.3064 86.348 87.0317 86.0261C87.757 85.6957 88.325 85.237 88.7357 84.65C89.1464 84.063 89.3485 83.386 89.3421 82.619C89.3527 81.8264 89.1501 81.127 88.7341 80.5207C88.3181 79.9145 87.7143 79.4398 86.9226 79.0968C86.1395 78.7538 85.1939 78.5807 84.086 78.5777L81.772 78.5715L81.7819 74.9152L84.0958 74.9215C85.0078 74.924 85.8051 74.7685 86.4877 74.455C87.1789 74.1415 87.7213 73.6998 88.1149 73.1298C88.5085 72.5513 88.7021 71.8828 88.6956 71.1243C88.7062 70.3828 88.5417 69.7389 88.2023 69.1925C87.8714 68.6377 87.3995 68.206 86.7867 67.8975C86.1825 67.5891 85.4712 67.4337 84.6531 67.4315C83.8519 67.4293 83.1101 67.5722 82.4275 67.8601C81.7449 68.1481 81.194 68.5599 80.775 69.0957C80.3559 69.623 80.1326 70.2531 80.1051 70.986L75.5412 70.9736C75.5792 69.5078 76.0046 68.222 76.8172 67.1163C77.6384 66.002 78.7317 65.1356 80.097 64.5172C81.4623 63.8902 82.993 63.579 84.689 63.5836C86.4362 63.5883 87.9523 63.9205 89.2375 64.5803C90.5312 65.2315 91.5302 66.1078 92.2347 67.2091C92.9391 68.3105 93.2895 69.5259 93.2859 70.8555C93.2904 72.3299 92.8524 73.5645 91.9719 74.5593C91.0998 75.5541 89.956 76.203 88.5404 76.506L88.5399 76.7105C90.3801 76.9712 91.7888 77.6568 92.7659 78.7674C93.7515 79.8695 94.2379 81.2388 94.2249 82.8751C94.221 84.341 93.7998 85.6524 92.9614 86.8092C92.1316 87.9575 90.9871 88.8578 89.528 89.5101C88.0773 90.1625 86.4145 90.4861 84.5395 90.481ZM98.5934 90.1611L98.6026 86.735L107.716 77.8491C108.588 76.9736 109.314 76.1957 109.896 75.5155C110.477 74.8352 110.914 74.1759 111.205 73.5375C111.497 72.8991 111.643 72.2176 111.645 71.4932C111.648 70.6665 111.462 69.9586 111.089 69.3695C110.715 68.7719 110.201 68.3103 109.545 67.9847C108.89 67.659 108.145 67.4951 107.31 67.4928C106.449 67.4905 105.694 67.6674 105.045 68.0236C104.397 68.3713 103.892 68.8685 103.533 69.5153C103.182 70.1621 103.005 70.9329 103.002 71.8278L98.4896 71.8156C98.4941 70.1536 98.8773 68.7101 99.6391 67.4849C100.401 66.2596 101.448 65.3122 102.779 64.6425C104.119 63.9728 105.654 63.6403 107.384 63.645C109.14 63.6498 110.681 63.9821 112.009 64.6419C113.337 65.3017 114.366 66.2037 115.096 67.3477C115.834 68.4918 116.201 69.7967 116.197 71.2626C116.194 72.2427 116.004 73.2053 115.627 74.1503C115.249 75.0953 114.586 76.1418 113.637 77.2898C112.696 78.4378 111.376 79.8277 109.675 81.4595L105.15 86.0368L105.15 86.2157L116.553 86.2466L116.542 90.2097L98.5934 90.1611Z" fill="#1D1A05"/>
<path opacity="0.2" d="M43.2899 20.4607C43.2899 35.9 22.397 48.9999 22.397 48.9999C22.397 48.9999 1.50415 35.9 1.50415 20.4607C1.50415 17.1105 2.64708 13.8975 4.68152 11.5285C6.71595 9.15949 9.47524 7.82861 12.3524 7.82861C16.8905 7.82861 20.7778 10.7083 22.397 15.3143C24.0162 10.7083 27.9035 7.82861 32.4416 7.82861C35.3188 7.82861 38.0781 9.15949 40.1125 11.5285C42.1469 13.8975 43.2899 17.1105 43.2899 20.4607Z" fill="#1D1A05"/>
<path d="M32.5446 4C28.3962 4 24.7641 6.07728 22.5 9.58854C20.2359 6.07728 16.6038 4 12.4554 4C9.15313 4.00433 5.98723 5.53377 3.6522 8.25277C1.31717 10.9718 0.00372202 14.6583 0 18.5035C0 34.8785 20.8507 48.1328 21.7386 48.6802C21.9726 48.8268 22.2343 48.9036 22.5 48.9036C22.7657 48.9036 23.0273 48.8268 23.2614 48.6802C24.1493 48.1328 45 34.8785 45 18.5035C44.9963 14.6583 43.6828 10.9718 41.3478 8.25277C39.0128 5.53377 35.8469 4.00433 32.5446 4ZM22.5 44.8906C18.8317 42.4016 3.21429 31.0631 3.21429 18.5035C3.21747 15.6508 4.19211 12.9159 5.92446 10.8987C7.6568 8.88146 10.0055 7.74656 12.4554 7.74285C16.3627 7.74285 19.6433 10.1663 21.0134 14.0589C21.1345 14.4021 21.3405 14.6957 21.6052 14.9023C21.8699 15.1089 22.1813 15.2192 22.5 15.2192C22.8187 15.2192 23.1301 15.1089 23.3948 14.9023C23.6595 14.6957 23.8655 14.4021 23.9866 14.0589C25.3567 10.1593 28.6373 7.74285 32.5446 7.74285C34.9945 7.74656 37.3432 8.88146 39.0755 10.8987C40.8079 12.9159 41.7825 15.6508 41.7857 18.5035C41.7857 31.0444 26.1643 42.3993 22.5 44.8906Z" fill="#1D1A05"/>
<path opacity="0.2" d="M43.7857 69.6575C43.7857 85.1298 22.8929 98.2579 22.8929 98.2579C22.8929 98.2579 2 85.1298 2 69.6575C2.0003 67.154 2.6367 64.7068 3.82874 62.6253C5.02077 60.5438 6.71492 58.9215 8.69699 57.9635C10.6791 57.0055 12.86 56.7548 14.9642 57.2432C17.0683 57.7315 19.0012 58.9369 20.5183 60.7069L22.8929 63.4755L25.2674 60.7069C26.7846 58.9369 28.7174 57.7315 30.8215 57.2432C32.9257 56.7548 35.1067 57.0055 37.0887 57.9635C39.0708 58.9215 40.7649 60.5438 41.957 62.6253C43.149 64.7068 43.7854 67.154 43.7857 69.6575Z" fill="#1D1A05"/>
<path d="M34.9375 57.1226C33.3012 57.1175 31.6802 57.4911 30.1685 58.2219C28.6568 58.9527 27.2842 60.026 26.1303 61.3799L24.8928 62.8239L23.6553 61.3799C21.9134 59.3472 19.6941 57.963 17.278 57.4022C14.862 56.8414 12.3576 57.1292 10.0818 58.2293C7.80587 59.3293 5.86062 61.1922 4.49201 63.5824C3.12339 65.9726 2.39287 68.7826 2.39282 71.6573C2.39282 88.0674 23.2435 101.353 24.1314 101.899C24.3655 102.046 24.6271 102.123 24.8928 102.123C25.1586 102.123 25.4202 102.046 25.6542 101.899C26.5422 101.353 47.3928 88.0674 47.3928 71.6573C47.3891 67.8038 46.0756 64.1093 43.7406 61.3845C41.4056 58.6597 38.2397 57.127 34.9375 57.1226ZM24.8928 98.101C21.2245 95.6066 5.60711 84.2438 5.60711 71.6573C5.60686 69.5242 6.14871 67.439 7.16411 65.6654C8.17952 63.8917 9.62287 62.5093 11.3116 61.693C13.0003 60.8767 14.8586 60.6631 16.6514 61.0793C18.4441 61.4955 20.0908 62.5228 21.3832 64.0313L22.6207 65.4754L20.5415 67.9064C20.2403 68.2581 20.0711 68.7349 20.0711 69.2321C20.0711 69.7293 20.2403 70.2061 20.5415 70.5578L25.4694 76.3084L22.1486 80.1811C21.8471 80.5331 21.6776 81.0103 21.6776 81.508C21.6776 82.0057 21.8471 82.483 22.1486 82.8349C22.4502 83.1868 22.8592 83.3845 23.2857 83.3845C23.7122 83.3845 24.1212 83.1868 24.4227 82.8349L28.8785 77.6329C29.1797 77.2812 29.3489 76.8044 29.3489 76.3072C29.3489 75.81 29.1797 75.3332 28.8785 74.9815L23.9506 69.2262L28.4024 64.0313C29.6948 62.5228 31.3415 61.4955 33.1343 61.0793C34.927 60.6631 36.7853 60.8767 38.474 61.693C40.1628 62.5093 41.6061 63.8917 42.6215 65.6654C43.6369 67.439 44.1788 69.5242 44.1785 71.6573C44.1785 84.2251 28.5571 95.6043 24.8928 98.101Z" fill="#1D1A05"/>
</svg>
