<svg width="109" height="109" viewBox="0 0 109 109" fill="none" xmlns="http://www.w3.org/2000/svg">
<path d="M20.9825 82.295C25.615 78.7525 30.7925 75.9594 36.515 73.9156C42.2375 71.8719 48.2325 70.85 54.5 70.85C60.7675 70.85 66.7625 71.8719 72.485 73.9156C78.2075 75.9594 83.385 78.7525 88.0175 82.295C91.1967 78.5708 93.6719 74.3471 95.4431 69.6237C97.2144 64.9004 98.1 59.8592 98.1 54.5C98.1 42.4192 93.8535 32.1323 85.3606 23.6394C76.8677 15.1465 66.5808 10.9 54.5 10.9C42.4192 10.9 32.1323 15.1465 23.6394 23.6394C15.1465 32.1323 10.9 42.4192 10.9 54.5C10.9 59.8592 11.7856 64.9004 13.5569 69.6237C15.3281 74.3471 17.8033 78.5708 20.9825 82.295ZM54.5 59.95C49.1408 59.95 44.6219 58.1106 40.9431 54.4319C37.2644 50.7531 35.425 46.2342 35.425 40.875C35.425 35.5158 37.2644 30.9969 40.9431 27.3181C44.6219 23.6394 49.1408 21.8 54.5 21.8C59.8592 21.8 64.3781 23.6394 68.0569 27.3181C71.7356 30.9969 73.575 35.5158 73.575 40.875C73.575 46.2342 71.7356 50.7531 68.0569 54.4319C64.3781 58.1106 59.8592 59.95 54.5 59.95ZM54.5 109C46.9608 109 39.8758 107.569 33.245 104.708C26.6142 101.847 20.8463 97.9638 15.9413 93.0588C11.0363 88.1538 7.15313 82.3858 4.29188 75.755C1.43063 69.1242 0 62.0392 0 54.5C0 46.9608 1.43063 39.8758 4.29188 33.245C7.15313 26.6142 11.0363 20.8463 15.9413 15.9413C20.8463 11.0363 26.6142 7.15313 33.245 4.29188C39.8758 1.43063 46.9608 0 54.5 0C62.0392 0 69.1242 1.43063 75.755 4.29188C82.3858 7.15313 88.1538 11.0363 93.0588 15.9413C97.9638 20.8463 101.847 26.6142 104.708 33.245C107.569 39.8758 109 46.9608 109 54.5C109 62.0392 107.569 69.1242 104.708 75.755C101.847 82.3858 97.9638 88.1538 93.0588 93.0588C88.1538 97.9638 82.3858 101.847 75.755 104.708C69.1242 107.569 62.0392 109 54.5 109ZM54.5 98.1C59.3142 98.1 63.8558 97.396 68.125 95.9881C72.3942 94.5802 76.3 92.5592 79.8425 89.925C76.3 87.2908 72.3942 85.2698 68.125 83.8619C63.8558 82.454 59.3142 81.75 54.5 81.75C49.6858 81.75 45.1442 82.454 40.875 83.8619C36.6058 85.2698 32.7 87.2908 29.1575 89.925C32.7 92.5592 36.6058 94.5802 40.875 95.9881C45.1442 97.396 49.6858 98.1 54.5 98.1ZM54.5 49.05C56.8617 49.05 58.8146 48.2779 60.3588 46.7338C61.9029 45.1896 62.675 43.2367 62.675 40.875C62.675 38.5133 61.9029 36.5604 60.3588 35.0163C58.8146 33.4721 56.8617 32.7 54.5 32.7C52.1383 32.7 50.1854 33.4721 48.6413 35.0163C47.0971 36.5604 46.325 38.5133 46.325 40.875C46.325 43.2367 47.0971 45.1896 48.6413 46.7338C50.1854 48.2779 52.1383 49.05 54.5 49.05Z" fill="#1D1A05"/>
</svg>
