<svg width="224" height="224" viewBox="0 0 224 224" fill="none" xmlns="http://www.w3.org/2000/svg">
<path d="M54.9333 159.933C62.8667 153.867 71.7333 149.083 81.5333 145.583C91.3333 142.083 101.6 140.333 112.333 140.333C123.067 140.333 133.333 142.083 143.133 145.583C152.933 149.083 161.8 153.867 169.733 159.933C175.178 153.556 179.417 146.322 182.45 138.233C185.483 130.144 187 121.511 187 112.333C187 91.6444 179.728 74.0278 165.183 59.4833C150.639 44.9389 133.022 37.6667 112.333 37.6667C91.6444 37.6667 74.0278 44.9389 59.4833 59.4833C44.9389 74.0278 37.6667 91.6444 37.6667 112.333C37.6667 121.511 39.1833 130.144 42.2167 138.233C45.25 146.322 49.4889 153.556 54.9333 159.933ZM112.333 121.667C103.156 121.667 95.4167 118.517 89.1167 112.217C82.8167 105.917 79.6667 98.1778 79.6667 89C79.6667 79.8222 82.8167 72.0833 89.1167 65.7833C95.4167 59.4833 103.156 56.3333 112.333 56.3333C121.511 56.3333 129.25 59.4833 135.55 65.7833C141.85 72.0833 145 79.8222 145 89C145 98.1778 141.85 105.917 135.55 112.217C129.25 118.517 121.511 121.667 112.333 121.667ZM112.333 205.667C99.4222 205.667 87.2889 203.217 75.9333 198.317C64.5778 193.417 54.7 186.767 46.3 178.367C37.9 169.967 31.25 160.089 26.35 148.733C21.45 137.378 19 125.244 19 112.333C19 99.4222 21.45 87.2889 26.35 75.9333C31.25 64.5778 37.9 54.7 46.3 46.3C54.7 37.9 64.5778 31.25 75.9333 26.35C87.2889 21.45 99.4222 19 112.333 19C125.244 19 137.378 21.45 148.733 26.35C160.089 31.25 169.967 37.9 178.367 46.3C186.767 54.7 193.417 64.5778 198.317 75.9333C203.217 87.2889 205.667 99.4222 205.667 112.333C205.667 125.244 203.217 137.378 198.317 148.733C193.417 160.089 186.767 169.967 178.367 178.367C169.967 186.767 160.089 193.417 148.733 198.317C137.378 203.217 125.244 205.667 112.333 205.667ZM112.333 187C120.578 187 128.356 185.794 135.667 183.383C142.978 180.972 149.667 177.511 155.733 173C149.667 168.489 142.978 165.028 135.667 162.617C128.356 160.206 120.578 159 112.333 159C104.089 159 96.3111 160.206 89 162.617C81.6889 165.028 75 168.489 68.9333 173C75 177.511 81.6889 180.972 89 183.383C96.3111 185.794 104.089 187 112.333 187ZM112.333 103C116.378 103 119.722 101.678 122.367 99.0333C125.011 96.3889 126.333 93.0444 126.333 89C126.333 84.9556 125.011 81.6111 122.367 78.9667C119.722 76.3222 116.378 75 112.333 75C108.289 75 104.944 76.3222 102.3 78.9667C99.6555 81.6111 98.3333 84.9556 98.3333 89C98.3333 93.0444 99.6555 96.3889 102.3 99.0333C104.944 101.678 108.289 103 112.333 103Z" fill="#FEFADC"/>
</svg>
