<svg width="27" height="23" viewBox="0 0 27 23" fill="none" xmlns="http://www.w3.org/2000/svg">
<g clip-path="url(#clip0_216_98)">
<path d="M0.317036 16.944L1.54906 12.3461C1.90336 11.0238 2.51655 9.71453 3.38863 8.41824C4.27958 7.11092 5.32641 5.93394 6.52914 4.8873C7.75073 3.82962 9.02182 3.00261 10.3424 2.40628L13.4229 5.8648C12.1892 6.96758 11.0804 8.16821 10.0964 9.46671C9.13125 10.7542 8.42258 12.2714 7.97038 14.0184L6.72629 18.6614L0.317036 16.944ZM11.6 19.9673L12.832 15.3693C13.1863 14.0471 13.587 12.5253 14.4591 11.229C15.35 9.9217 16.6094 8.9572 17.8121 7.91056C19.0336 6.85287 20.3047 6.02585 21.6254 5.42954L24.919 9.46671C23.6853 10.5695 22.3633 11.1915 21.3793 12.49C20.4142 13.7774 19.7055 15.2946 19.2533 17.0416L18.0092 21.6846L11.6 19.9673Z" fill="#FF7B00"/>
</g>
<defs>
<clipPath id="clip0_216_98">
<rect width="22.3021" height="17.4538" fill="white" transform="translate(4.51733) rotate(15)"/>
</clipPath>
</defs>
</svg>
